<?xml version="1.0"?>
<svg xmlns="http://www.w3.org/2000/svg" xmlns:xlink="http://www.w3.org/1999/xlink" width="1080" zoomAndPan="magnify" viewBox="0 0 810 809.999993" height="1080" preserveAspectRatio="xMidYMid meet" version="1.0" style="background-color:transparent;">
  <defs>
    <clipPath id="e5b41990a1">
      <path d="M 103 464 L 708 464 L 708 645.75 L 103 645.75 Z M 103 464 " clip-rule="nonzero"/>
    </clipPath>
  </defs>
  <rect x="-81" width="972" fill="none" y="-80.999999" height="971.999992" fill-opacity="1"/>
  <rect x="-81" width="972" fill="none" y="-80.999999" height="971.999992" fill-opacity="1"/>
  <g clip-path="url(#e5b41990a1)">
    <path fill="#122038" d="M 358.230469 629.273438 C 339.652344 629.015625 321.234375 631.140625 302.753906 632.492188 C 283.53125 633.875 264.339844 635.644531 245.152344 637.222656 C 230.46875 638.445312 215.785156 639.796875 201.105469 641.085938 C 185.421875 642.46875 169.679688 643.59375 153.933594 644.238281 C 145.628906 644.558594 137.320312 645.234375 129.011719 645.265625 C 127.433594 645.265625 125.792969 645.75 124.375 644.65625 C 119.964844 644.109375 115.714844 645.492188 111.367188 645.589844 C 107.246094 645.652344 104.898438 643.789062 103.929688 639.828125 C 102.0625 632.105469 102.933594 628.566406 107.699219 625.1875 C 110.082031 623.484375 112.882812 623.320312 115.652344 623.257812 C 117.777344 623.226562 119.480469 622.644531 119.835938 620.296875 C 120.898438 613.25 126.148438 611.449219 132.039062 610.386719 C 137.964844 609.324219 138.609375 608.777344 138.898438 602.921875 C 139.445312 591.5625 141.859375 580.332031 141.699219 568.910156 C 141.667969 566.269531 142.695312 563.953125 144.757812 562.378906 C 147.527344 560.253906 147.71875 557.710938 147.042969 554.589844 C 145.433594 547.15625 144.144531 539.726562 144.179688 532.035156 C 144.210938 526.402344 145.175781 520.996094 146.691406 515.625 C 148.007812 510.925781 149.972656 509.316406 154.835938 509.285156 C 166.75 509.21875 164.816406 509.863281 168.101562 499.308594 C 171.160156 489.496094 176.214844 487.019531 185.746094 490.71875 C 208.027344 499.339844 231.207031 503.492188 255.003906 504.941406 C 279.023438 506.421875 303.140625 506.644531 326.933594 511.054688 C 346.347656 514.660156 365.085938 519.902344 381.476562 531.488281 C 386.980469 535.378906 392.328125 539.433594 396.480469 544.839844 C 398.285156 547.15625 399.734375 547.769531 401.988281 545.195312 C 417.988281 526.855469 438.273438 514.625 460.328125 505.003906 C 483.929688 494.707031 508.820312 488.882812 533.902344 483.863281 C 552.960938 480.035156 572.152344 477.011719 590.890625 471.605469 C 596.363281 470.027344 601.675781 467.9375 606.988281 465.875 C 612.527344 463.753906 614.878906 464.558594 618.035156 469.511719 C 619.675781 472.121094 621.480469 474.566406 623.347656 477.042969 C 625.921875 480.484375 628.851562 482.769531 633.648438 482.253906 C 637.480469 481.871094 640.703125 483.929688 643.050781 487.019531 C 646.046875 490.976562 649.203125 494.804688 651.808594 499.050781 C 653.03125 501.046875 654.257812 503.171875 656.285156 504.363281 C 664.625 509.21875 668.101562 528.65625 662.757812 536.3125 C 657.507812 543.84375 657.960938 551.277344 659.957031 559.546875 C 662.339844 569.328125 664.464844 579.175781 666.621094 589.019531 C 667.359375 592.429688 669.101562 594.074219 672.542969 594.296875 C 677.34375 594.585938 680.917969 596.777344 682.558594 601.472656 C 683.265625 603.4375 684.394531 604.753906 686.582031 604.949219 C 687.96875 605.078125 688.933594 606.074219 690.058594 606.71875 C 693.667969 607.007812 697.304688 607.265625 700.910156 607.585938 C 702.714844 607.75 704.226562 608.488281 705.386719 609.96875 C 707.351562 612.445312 708.058594 622.003906 706.351562 624.609375 C 704.808594 626.992188 702.585938 627.921875 699.71875 628.019531 C 694.761719 628.148438 689.933594 626.445312 684.972656 627.121094 C 680.207031 628.34375 675.410156 627.632812 670.644531 627.28125 C 667.007812 626.992188 663.367188 626.734375 659.730469 626.699219 C 627.46875 626.636719 595.171875 625.863281 562.910156 625.574219 C 547.296875 625.445312 531.648438 624.769531 516.0625 625.09375 C 497.097656 625.476562 478.132812 625.960938 459.203125 627.441406 C 454.695312 627.792969 450.15625 627.503906 445.648438 628.277344 C 443.101562 628.664062 364.539062 629.339844 358.230469 629.273438 Z M 358.230469 629.273438 " fill-opacity="1" fill-rule="nonzero"/>
  </g>
  <path fill="#132036" d="M 351.566406 472.828125 C 352.207031 470.125 351.46875 468.742188 348.375 468.902344 C 346.507812 469 344.578125 468.644531 342.710938 468.324219 C 337.75 467.484375 334.917969 464.816406 334.015625 459.796875 C 333.308594 455.773438 332.695312 451.71875 332.40625 447.664062 C 331.890625 440.390625 334.757812 437.140625 342 437.464844 C 345.832031 437.65625 346.574219 436.273438 346.15625 433.054688 C 346.058594 432.347656 346.058594 431.609375 346.027344 430.867188 C 345.832031 427.519531 346.542969 423.722656 345.1875 420.925781 C 343.578125 417.609375 339.167969 419.414062 336.046875 418.609375 C 328.769531 416.742188 327.707031 409.246094 331.699219 403.386719 C 332.535156 402.164062 331.472656 402.648438 331.410156 402.617188 C 325.128906 397.015625 324.839844 395.441406 329.316406 388.230469 C 330.859375 385.753906 329.863281 383.375 329.25 381.089844 C 325.839844 367.929688 319.65625 356.152344 311.542969 345.273438 C 302.945312 333.753906 292.289062 324.101562 282.820312 313.386719 C 255.96875 283.042969 245.441406 247.839844 250.429688 207.683594 C 257.933594 147.929688 305.617188 99.695312 364.796875 87.789062 C 398.542969 81 431.800781 82.253906 463.453125 96.636719 C 500.382812 113.402344 526.65625 140.5625 535.382812 180.945312 C 543.722656 219.558594 536.414062 256.109375 513.777344 288.964844 C 505.503906 300.964844 496.132812 312.195312 487.601562 324.039062 C 478.84375 336.199219 471.953125 349.328125 469.601562 364.386719 C 468.828125 369.246094 468.121094 373.914062 473.273438 377.613281 C 476.976562 380.285156 476.75 385.046875 473.625 388.972656 C 472.050781 390.933594 471.535156 392.449219 472.371094 395.117188 C 474.945312 403.355469 472.113281 408.085938 463.675781 410.660156 C 456.625 412.816406 456.625 412.816406 457.785156 420.25 C 457.882812 420.828125 457.882812 421.40625 457.976562 421.988281 C 459.136719 428.421875 459.136719 428.421875 465.640625 428.066406 C 472.210938 427.714844 475.074219 429.933594 476.300781 436.304688 C 477.167969 440.746094 477.78125 445.25 477.652344 449.789062 C 477.457031 456.191406 475.816406 458.636719 469.503906 459.796875 C 464.738281 460.664062 463.804688 462.628906 465.511719 466.714844 C 465.835938 467.519531 465.835938 468.417969 465.996094 469.289062 C 469.921875 476.011719 467.347656 482.253906 464.257812 488.273438 C 462.132812 492.390625 458.269531 494.964844 454.148438 497.023438 C 443.007812 502.625 430.898438 504.746094 418.730469 506.164062 C 408.328125 507.386719 397.863281 508.320312 387.335938 508.222656 C 381.574219 508.191406 375.96875 507.386719 370.464844 506.003906 C 356.683594 502.527344 347.992188 488.691406 350.664062 474.757812 C 350.726562 474.019531 351.050781 473.375 351.566406 472.828125 Z M 351.566406 472.828125 " fill-opacity="1" fill-rule="nonzero"/>
  <path fill="#fbfbfb" d="M 384.984375 582.230469 C 387.59375 583.003906 389.429688 584.902344 391.425781 586.609375 C 391.972656 587.058594 392.550781 587.703125 393.324219 587.316406 C 394.097656 586.929688 393.9375 586.09375 393.9375 585.382812 C 393.90625 582.808594 392.585938 580.65625 391.328125 578.53125 C 383.535156 565.144531 370.914062 558.582031 356.78125 554.238281 C 337.238281 548.25 317.175781 547.414062 296.957031 548.476562 C 264.953125 550.183594 233.460938 556.007812 201.714844 559.964844 C 190.414062 561.378906 179.082031 562.765625 167.683594 562.988281 C 166.878906 563.019531 164.589844 564.308594 165.429688 561.445312 C 165.78125 560.253906 165.78125 559.03125 164.140625 558.804688 C 162.886719 558.613281 161.855469 559 161.179688 560.15625 C 160.503906 561.347656 159.664062 563.859375 158.472656 562.601562 C 156.800781 560.832031 156.703125 557.710938 157.023438 555.203125 C 157.28125 553.238281 159.148438 554.847656 160.277344 554.847656 C 162.757812 554.847656 165.234375 555.007812 167.714844 555.105469 C 168.90625 555.136719 169.679688 554.589844 169.902344 553.433594 C 170.128906 552.113281 168.585938 551.953125 168.328125 551.40625 C 166.074219 546.546875 162.144531 548.765625 158.730469 548.832031 C 157.605469 548.863281 156.058594 549.023438 156.058594 547.351562 C 156.058594 545.453125 157.765625 546.257812 158.730469 546.191406 C 161.789062 546 164.847656 545.96875 167.875 545.804688 C 168.550781 545.773438 169.484375 545.675781 169.550781 544.777344 C 169.613281 543.90625 169.324219 542.554688 168.457031 542.652344 C 162.53125 543.167969 162.082031 538.375 160.46875 534.414062 C 162.207031 533.097656 164.785156 533.964844 166.621094 532.871094 C 166.714844 531.261719 165.523438 530.8125 164.625 530.8125 C 162.082031 530.746094 161.855469 529.363281 162.113281 527.367188 C 162.242188 526.402344 162.464844 525.179688 161.179688 524.761719 C 159.535156 524.214844 159.277344 525.757812 158.796875 526.691406 C 158.3125 527.625 157.863281 528.496094 156.765625 528.816406 C 155.09375 529.300781 153.804688 529.203125 154.222656 526.886719 C 154.289062 526.597656 154.289062 526.304688 154.320312 526.015625 C 155.449219 518.328125 155.449219 518.328125 163.367188 518.292969 C 178.726562 518.230469 193.925781 521.253906 209.28125 521.0625 C 212.597656 521.03125 215.914062 521.0625 219.261719 520.515625 C 210.121094 518.875 200.976562 517.199219 191.832031 515.65625 C 185.457031 514.59375 185.457031 514.691406 186.710938 508.320312 C 186.90625 507.320312 188.128906 506.066406 186.421875 505.328125 C 184.972656 504.683594 183.8125 505.421875 183.167969 506.710938 C 182.398438 508.253906 181.6875 509.863281 181.207031 511.535156 C 180.691406 513.339844 180.144531 513.949219 177.921875 513.53125 C 174.734375 512.921875 174.027344 512.019531 174.925781 508.738281 C 177.984375 497.765625 177.824219 497.734375 188.644531 501.53125 C 210.441406 509.1875 232.980469 512.792969 255.96875 513.984375 C 279.601562 515.207031 303.269531 515.753906 326.644531 520.0625 C 345.316406 523.507812 363.125 529.171875 378.707031 540.464844 C 386.175781 545.871094 392.167969 552.59375 396.609375 560.574219 C 397.863281 562.828125 397.703125 565.886719 398.058594 567.878906 C 411.128906 540.273438 436.117188 526.082031 462.582031 513.886719 C 489.308594 501.5625 518.027344 495.996094 546.683594 490.363281 C 567.160156 486.34375 587.800781 483.058594 607.34375 475.402344 C 609.019531 474.757812 609.921875 475.078125 610.886719 476.527344 C 613.238281 480.035156 615.746094 483.414062 618.453125 487.210938 C 609.371094 490.363281 600.066406 492.292969 590.664062 493.742188 C 566.292969 497.539062 541.628906 499.40625 517.414062 504.328125 C 504.246094 507 491.238281 510.21875 478.808594 515.429688 C 476.136719 516.558594 473.59375 517.972656 471.308594 520 C 474.882812 518.875 478.457031 517.683594 482.0625 516.652344 C 505.117188 509.929688 528.8125 506.386719 552.574219 503.492188 C 578.367188 500.371094 604.1875 497.3125 629.5625 491.554688 C 632.683594 490.847656 634.9375 491.328125 636.546875 494.226562 C 638.351562 497.476562 643.308594 500.210938 642.183594 503.265625 C 641.3125 505.585938 635.582031 504.875 632.039062 505.519531 C 609.148438 509.671875 586.03125 511.859375 562.910156 513.917969 C 528.554688 516.976562 494.296875 520.707031 461.519531 532.421875 C 442.8125 539.113281 425.363281 547.996094 411.128906 562.28125 C 404.949219 568.492188 400.246094 575.507812 398.347656 584.257812 C 403.949219 574.539062 411.96875 567.300781 421.046875 561.027344 C 443.457031 545.484375 468.539062 536.410156 495.007812 530.652344 C 518.769531 525.46875 542.949219 523.507812 567.097656 521.222656 C 593.433594 518.710938 619.644531 515.207031 645.820312 511.410156 C 651.777344 510.539062 653.742188 512.019531 655.222656 518.003906 C 656.605469 523.667969 656.605469 523.667969 650.585938 523.539062 C 649.425781 523.507812 648.234375 523.410156 647.078125 523.441406 C 645.082031 523.441406 643.726562 522.929688 643.855469 520.480469 C 643.921875 519.195312 643.632812 517.617188 641.859375 517.683594 C 640.058594 517.746094 639.15625 519.097656 639.640625 520.738281 C 640.605469 524.085938 638.285156 523.054688 636.773438 523.089844 C 620.253906 523.410156 603.769531 523.894531 587.511719 527.207031 C 585.996094 527.527344 584.484375 527.949219 583.035156 528.6875 C 587.125 528.6875 591.214844 528.914062 595.269531 528.65625 C 607.667969 527.882812 620.09375 527.691406 632.523438 527.625 C 634.710938 527.625 637.609375 526.5625 638.800781 529.976562 C 639.125 530.90625 640.347656 530.84375 641.023438 530.105469 C 644.824219 526.015625 649.523438 529.007812 653.773438 528.460938 C 655.285156 528.269531 655.320312 529.492188 654.933594 530.554688 C 653.644531 534.125 651.96875 537.535156 649.652344 540.59375 C 648.300781 542.363281 646.238281 542.074219 644.371094 542.007812 C 629.175781 541.496094 613.976562 540.914062 598.8125 540.367188 C 572.507812 539.402344 546.167969 539.175781 519.894531 540.527344 C 487.4375 542.203125 455.757812 547.640625 426.746094 563.441406 C 415.316406 569.683594 405.300781 577.628906 399.699219 589.921875 C 399.054688 591.335938 397.898438 592.59375 398.25 594.585938 C 400.410156 592.207031 402.40625 589.984375 404.433594 587.796875 C 405.558594 587.410156 406.429688 587.765625 407.074219 588.730469 C 405.367188 590.597656 407.621094 592.625 406.878906 594.492188 C 406.367188 594.621094 407.171875 594.523438 406.65625 594.8125 C 406.140625 595.101562 405.945312 595.457031 406.429688 595.101562 C 418.472656 585.835938 432.285156 580.492188 446.933594 577.019531 C 469.632812 571.644531 492.71875 569.714844 516 568.652344 C 530.90625 567.976562 545.8125 567.6875 560.691406 568.136719 C 578.625 568.683594 596.589844 568.84375 614.523438 570.421875 C 620.480469 570.9375 626.503906 570.421875 632.457031 571.386719 C 633.585938 571.582031 634.808594 571.515625 635.902344 570.390625 C 635.035156 568.621094 633.296875 568.878906 631.847656 568.910156 C 615.039062 568.941406 598.265625 567.589844 581.523438 566.882812 C 561.332031 566.015625 541.175781 566.015625 521.023438 566.398438 C 491.011719 566.980469 461.164062 569.648438 432.542969 579.785156 C 431.027344 580.332031 429.484375 580.847656 427.839844 580.6875 C 425.78125 580.300781 425.105469 579.078125 425.714844 577.082031 C 427.648438 574.25 430.867188 573.351562 433.765625 572.03125 C 449.929688 564.695312 467.089844 561.25 484.574219 559.289062 C 502.445312 557.292969 520.441406 556.359375 538.34375 556.746094 C 557.4375 557.164062 576.5625 557.453125 595.65625 558.902344 C 605.703125 559.675781 615.714844 560.640625 625.792969 560.898438 C 627.371094 560.929688 629.011719 561.058594 631.394531 560.253906 C 627.015625 558.675781 623.121094 558.773438 619.386719 558.484375 C 585.902344 555.683594 552.351562 554.140625 518.734375 554.878906 C 495.328125 555.394531 472.082031 557.710938 449.414062 564.019531 C 447.996094 564.40625 446.613281 564.917969 445.132812 564.917969 C 444.070312 564.757812 442.878906 564.726562 442.84375 563.214844 C 455.851562 557.550781 469.472656 554.074219 483.414062 551.757812 C 520.859375 545.550781 558.597656 547.0625 596.269531 547.832031 C 612.175781 548.15625 628.113281 549.089844 644.019531 549.765625 C 648.140625 549.925781 650.136719 552.597656 649.203125 556.554688 C 648.878906 557.90625 648.171875 557.679688 647.332031 557.453125 C 645.949219 557.035156 644.597656 556.554688 643.210938 556.199219 C 641.472656 555.75 640.445312 556.488281 639.960938 558.195312 C 639.414062 559.964844 640.023438 561.15625 641.765625 561.476562 C 643.890625 561.863281 646.078125 562.054688 648.269531 562.21875 C 649.683594 562.3125 650.777344 562.472656 651.035156 564.242188 C 651.292969 566.207031 652.808594 568.84375 651.101562 569.90625 C 649.074219 571.128906 646.335938 570.066406 644.242188 568.523438 C 642.632812 571.484375 642.632812 573.351562 646.691406 573.800781 C 653.484375 574.574219 653.453125 574.703125 654.835938 582.007812 C 653.710938 583.003906 652.679688 581.714844 651.585938 581.84375 C 650.296875 582.007812 648.269531 580.847656 648.042969 583.066406 C 647.847656 585.222656 649.972656 585.386719 651.488281 585.546875 C 652.871094 585.675781 654.289062 585.417969 654.898438 583.292969 C 656.574219 586.800781 656.929688 589.921875 657.121094 593.109375 C 656.027344 594.234375 654.867188 593.171875 653.804688 593.363281 C 652.710938 593.589844 651.101562 593.300781 651.132812 594.878906 C 651.164062 596.230469 652.742188 596.195312 653.804688 596.582031 C 655.320312 597.128906 657.121094 594.8125 657.925781 596.324219 C 658.957031 598.320312 659.085938 600.796875 659.472656 603.082031 C 659.859375 605.140625 658.3125 604.59375 657.25 604.5625 C 644.984375 604.078125 632.714844 603.5 620.449219 603.148438 C 570.800781 601.699219 521.152344 599.285156 471.4375 602.375 C 458.75 603.148438 445.871094 602.695312 433.539062 605.625 C 427.164062 607.136719 422.464844 604.144531 416.957031 603.4375 C 416.605469 600.347656 419.308594 600.476562 421.015625 599.960938 C 432.058594 596.453125 443.488281 594.683594 454.984375 593.527344 C 483.222656 590.695312 511.554688 590.179688 539.890625 590.953125 C 557.695312 591.433594 575.53125 591.113281 593.339844 591.851562 C 607.921875 592.464844 622.507812 592.625 637.09375 593.398438 C 638.960938 593.492188 640.894531 593.6875 642.761719 592.464844 C 638.769531 591.722656 634.777344 590.984375 630.6875 590.953125 C 614.042969 590.855469 597.363281 590.4375 580.75 589.824219 C 549.484375 588.667969 518.21875 589.054688 486.957031 589.375 C 466.542969 589.601562 446.097656 591.304688 426.261719 597 C 422.109375 598.191406 418.375 600.925781 413.804688 600.539062 C 411.742188 600.894531 409.972656 602.984375 407.203125 601.34375 C 413.867188 596.96875 421.046875 594.363281 428.355469 592.238281 C 458.332031 583.484375 489.144531 580.976562 520.152344 580.171875 C 552.351562 579.335938 584.453125 581.332031 616.554688 582.972656 C 623.992188 583.359375 631.460938 583.648438 638.898438 583.90625 C 640.445312 583.96875 642.277344 584.324219 642.375 581.8125 C 642.472656 579.398438 640.863281 579.367188 639.1875 579.335938 C 588.960938 577.597656 538.761719 572.964844 488.46875 577.4375 C 465.898438 579.433594 443.488281 582.359375 422.078125 590.308594 C 416.058594 592.527344 410.164062 595.070312 405.6875 599.960938 C 404.789062 600.925781 403.628906 601.667969 402.242188 601.699219 C 397.382812 601.796875 392.714844 602.730469 388.140625 604.371094 C 386.691406 604.882812 385.242188 604.5625 384.148438 603.339844 C 383.988281 602.792969 384.148438 602.375 384.632812 602.085938 C 387.660156 600.027344 385.5 598.609375 383.890625 597.484375 C 379.671875 594.554688 375.070312 592.335938 370.238281 590.566406 C 358.324219 586.15625 345.867188 584.742188 333.308594 583.808594 C 300.722656 581.394531 269.042969 587.925781 237.199219 593.011719 C 218.425781 596.003906 199.75 599.414062 180.914062 601.828125 C 178.4375 602.148438 175.957031 602.214844 173.476562 602.277344 C 171.964844 602.308594 170.324219 602.117188 168.585938 603.953125 C 172.898438 604.789062 176.601562 604.144531 180.207031 603.628906 C 205.097656 600.15625 229.855469 595.714844 254.648438 591.5625 C 280.664062 587.1875 306.777344 584.742188 333.179688 585.707031 C 342.710938 586.058594 352.046875 587.703125 361.257812 590.179688 C 363.765625 590.855469 366.375 591.5625 368.242188 593.589844 C 368.273438 596.261719 366.632812 596.230469 364.734375 595.777344 C 345.414062 592.980469 326.03125 592.753906 306.585938 593.847656 C 286.589844 594.972656 266.722656 597.289062 246.824219 599.640625 C 220.132812 602.761719 193.667969 607.523438 166.878906 609.777344 C 165.460938 609.902344 163.59375 609.613281 163.722656 611.769531 C 163.851562 614.085938 165.945312 613.796875 167.425781 613.734375 C 177.664062 613.25 187.742188 611.578125 197.882812 610.226562 C 239.742188 604.628906 281.535156 598.511719 323.875 598.128906 C 338.941406 598 353.980469 598.417969 368.757812 601.859375 C 372.847656 602.824219 376.742188 604.335938 380.605469 606.203125 C 379.738281 608.039062 378.578125 608.84375 376.742188 608.488281 C 357.585938 604.722656 338.332031 606.652344 319.078125 607.714844 C 289.453125 609.355469 259.929688 612.316406 230.402344 615.117188 C 207.867188 617.273438 185.328125 619.589844 162.722656 620.8125 C 155.738281 621.199219 155.738281 621.390625 155.960938 614.34375 C 155.996094 613.316406 156.21875 612.222656 155.929688 611.289062 C 154.933594 607.941406 155.285156 605.816406 159.570312 606.363281 C 160.40625 606.492188 161.402344 606.269531 161.53125 605.140625 C 161.597656 604.371094 161.273438 603.5 160.535156 603.402344 C 157.058594 602.890625 157.734375 600.476562 157.992188 598.191406 C 158.085938 597.386719 158.378906 596.261719 157.1875 596.101562 C 156.636719 596.035156 155.929688 596.648438 155.351562 597.03125 C 155.027344 597.289062 154.769531 597.675781 154.578125 598.09375 C 153.546875 600.28125 152.871094 603.019531 149.492188 601.796875 C 148.589844 601.472656 149.167969 594.878906 150.167969 593.78125 C 151.195312 592.65625 152.644531 593.203125 153.902344 593.140625 C 155.511719 593.042969 157.121094 593.042969 158.730469 593.105469 C 161.5 593.269531 162.113281 591.371094 160.535156 590.019531 C 158.378906 588.121094 158.667969 586.058594 158.570312 583.808594 C 158.539062 583.035156 159.019531 581.910156 157.863281 581.585938 C 156.671875 581.265625 155.867188 582.199219 155.542969 583.132812 C 154.769531 585.289062 155.15625 589.117188 151.648438 587.925781 C 149.457031 587.1875 150.90625 583.808594 150.972656 581.621094 C 151.035156 577.984375 150.296875 573.414062 152.164062 571 C 154.128906 568.492188 158.667969 571.128906 162.113281 571.035156 C 178.210938 570.648438 194.148438 568.363281 210.054688 566.207031 C 240.449219 562.089844 270.746094 557.003906 301.433594 555.621094 C 323.164062 554.65625 344.640625 556.359375 364.992188 565.015625 C 368.855469 566.65625 372.558594 568.714844 375.617188 572.0625 C 373.492188 571.226562 371.398438 570.390625 369.273438 569.554688 C 354.816406 563.921875 339.652344 561.992188 324.292969 561.476562 C 299.371094 560.640625 274.742188 563.890625 250.078125 567.042969 C 224.027344 570.390625 198.207031 575.539062 172.09375 578.433594 C 170.066406 578.660156 168.003906 578.660156 165.976562 578.917969 C 164.976562 579.046875 163.238281 578.144531 163.078125 579.816406 C 162.917969 581.621094 164.785156 581.425781 166.007812 581.683594 C 170.835938 582.746094 175.667969 581.910156 180.402344 581.234375 C 205.128906 577.789062 229.761719 573.800781 254.519531 570.582031 C 281.050781 567.140625 307.679688 564.5 334.5 566.625 C 344.867188 567.429688 355.007812 569.328125 364.796875 572.964844 C 364.21875 575.667969 361.933594 575.378906 360 575.667969 C 348.152344 573.929688 336.269531 572.417969 324.292969 572.320312 C 301.464844 572.128906 278.863281 575.089844 256.257812 577.917969 C 231.015625 581.074219 206.125 586.285156 180.882812 589.40625 C 176.40625 589.953125 171.835938 589.214844 166.523438 590.660156 C 170.386719 592.109375 173.445312 591.59375 176.472656 591.207031 C 199.945312 588.25 223.257812 584 246.664062 580.558594 C 264.886719 577.886719 283.144531 575.957031 301.527344 574.667969 C 321.203125 573.285156 340.617188 574.285156 359.902344 578.273438 C 370.65625 580.492188 380.414062 584.964844 388.882812 592.109375 C 389.589844 592.6875 390.167969 593.6875 391.457031 593.558594 C 390.460938 589.246094 385.757812 588.25 383.921875 584.804688 C 383.503906 583.582031 383.890625 582.746094 384.984375 582.230469 Z M 384.984375 582.230469 " fill-opacity="1" fill-rule="nonzero"/>
  <path fill="#3e596a" d="M 434.699219 612.222656 C 449.863281 610.675781 464.835938 610.128906 479.808594 609.292969 C 493.6875 608.519531 507.53125 608.679688 521.375 608.585938 C 536.960938 608.457031 552.542969 608.261719 568.128906 608.777344 C 587.347656 609.453125 606.605469 609.773438 625.824219 610.546875 C 642.953125 611.222656 660.148438 611.800781 677.214844 613.734375 C 683.136719 614.410156 689.125 614.472656 695.082031 614.730469 C 697.144531 614.828125 698.945312 614.921875 698.980469 617.660156 C 699.011719 620.910156 696.5 620.136719 694.890625 619.945312 C 659.535156 615.921875 624.054688 618.140625 588.636719 617.242188 C 565.453125 616.660156 542.273438 615.40625 519.089844 615.761719 C 502.636719 616.019531 486.152344 616.789062 469.699219 617.496094 C 462.292969 617.820312 454.855469 618.269531 447.515625 619.234375 C 441.558594 620.039062 437.53125 617.980469 434.699219 612.222656 Z M 434.699219 612.222656 " fill-opacity="1" fill-rule="nonzero"/>
  <path fill="#405a6b" d="M 369.402344 615.085938 C 368.339844 619.203125 365.859375 620.105469 361.933594 620.136719 C 343 620.234375 324.132812 621.808594 305.296875 623.449219 C 293.703125 624.449219 282.082031 625.21875 270.492188 626.21875 C 253.972656 627.601562 237.488281 629.242188 220.96875 630.433594 C 205 631.589844 189.160156 633.683594 173.125 634.199219 C 156.542969 634.714844 139.960938 635.839844 123.410156 636.773438 C 120.511719 636.933594 117.679688 637.769531 114.71875 637.609375 C 112.945312 637.511719 111.464844 637.289062 111.367188 635.097656 C 111.273438 632.976562 112.558594 632.523438 114.425781 632.300781 C 128.59375 630.691406 142.792969 629.628906 156.992188 628.726562 C 175.570312 627.539062 194.148438 626.347656 212.628906 624.253906 C 231.851562 622.097656 251.105469 620.425781 270.328125 618.464844 C 284.496094 617.015625 298.824219 616.917969 312.992188 615.535156 C 329.574219 613.894531 346.1875 613.925781 362.800781 613.925781 C 364.992188 613.894531 367.148438 614.023438 369.402344 615.085938 Z M 369.402344 615.085938 " fill-opacity="1" fill-rule="nonzero"/>
  <path fill="#1d2838" d="M 413.835938 600.347656 C 425.972656 594.167969 439.144531 591.757812 452.472656 590.277344 C 493.136719 585.675781 533.933594 587.605469 574.695312 588.054688 C 597.039062 588.3125 619.417969 588.859375 641.730469 590.113281 C 643.339844 590.210938 646.078125 589.085938 646.109375 592.109375 C 646.144531 595.101562 643.566406 594.75 641.570312 594.683594 C 611.753906 593.6875 581.972656 592.980469 552.15625 592.429688 C 519.574219 591.820312 486.988281 591.5 454.46875 594.75 C 442.585938 595.9375 430.804688 597.933594 419.375 601.667969 C 418.40625 601.988281 417.3125 602.019531 416.992188 603.242188 C 415.703125 602.535156 413.03125 603.339844 413.835938 600.347656 Z M 413.835938 600.347656 " fill-opacity="1" fill-rule="nonzero"/>
  <path fill="#3b5b6d" d="M 404.753906 609.484375 C 410.582031 609.066406 416.476562 611.382812 422.140625 614.539062 C 423.011719 615.019531 424.265625 615.308594 424.042969 616.566406 C 423.785156 617.917969 422.367188 617.335938 421.464844 617.660156 C 416.957031 619.171875 412.257812 618.011719 407.621094 618.882812 C 401.085938 620.105469 394.386719 620.296875 387.753906 620.910156 C 386.757812 621.003906 385.726562 620.941406 384.695312 620.941406 C 382.957031 620.941406 380.703125 621.070312 380.15625 619.269531 C 379.671875 617.660156 381.667969 616.660156 382.957031 615.824219 C 389.332031 611.578125 396.253906 609.324219 404.753906 609.484375 Z M 404.753906 609.484375 " fill-opacity="1" fill-rule="nonzero"/>
  <path fill="#dae2e8" d="M 406.71875 588.539062 C 405.980469 588.25 405.238281 587.957031 404.496094 587.667969 C 415.15625 576.117188 428.132812 568.203125 442.910156 563.117188 C 443.554688 563.40625 444.164062 563.730469 444.808594 564.019531 C 444.808594 565.5 443.683594 565.980469 442.621094 566.367188 C 429.707031 571 418.183594 577.726562 409.070312 588.152344 C 408.78125 588.472656 408.363281 588.632812 407.941406 588.796875 C 407.492188 588.890625 407.074219 588.796875 406.71875 588.539062 Z M 406.71875 588.539062 " fill-opacity="1" fill-rule="nonzero"/>
  <path fill="#edf1f4" d="M 153.613281 607.199219 C 150.683594 610.515625 151.617188 614.570312 151.519531 618.398438 C 151.453125 620.457031 150.941406 621.199219 148.847656 621.230469 C 146.175781 621.261719 147.074219 619.558594 147.171875 618.269531 C 147.367188 615.792969 147.976562 613.347656 147.847656 610.902344 C 147.625 606.234375 149.554688 605.300781 153.613281 607.199219 Z M 153.613281 607.199219 " fill-opacity="1" fill-rule="nonzero"/>
  <path fill="#dde2e9" d="M 384.984375 582.230469 C 384.664062 582.875 384.375 583.519531 384.050781 584.160156 C 382.828125 584.644531 381.703125 584.226562 380.769531 583.613281 C 375.230469 579.980469 369.015625 578.113281 362.703125 576.472656 C 361.675781 576.214844 360.289062 576.148438 360.355469 574.476562 C 361.964844 574.378906 363.511719 574.121094 364.703125 572.933594 C 371.976562 574.960938 378.480469 578.5625 384.984375 582.230469 Z M 384.984375 582.230469 " fill-opacity="1" fill-rule="nonzero"/>
  <path fill="#d5dfe6" d="M 384.179688 602.117188 C 384.179688 602.4375 384.148438 602.792969 384.148438 603.113281 C 378.191406 599.285156 371.367188 597.613281 364.703125 595.519531 C 365.988281 595.199219 367.339844 594.941406 368.273438 593.847656 C 368.917969 593.042969 369.851562 593.011719 370.625 593.332031 C 375.617188 595.488281 381.378906 596.550781 384.179688 602.117188 Z M 384.179688 602.117188 " fill-opacity="1" fill-rule="nonzero"/>
  <path fill="#f0f2f7" d="M 157.925781 538.050781 C 157.28125 539.144531 159.40625 542.296875 155.996094 541.75 C 152.453125 541.171875 154.675781 537.761719 153.964844 535.734375 C 153.484375 534.382812 154.03125 533.902344 155.703125 533.835938 C 159.34375 533.707031 157.925781 536.054688 157.925781 538.050781 Z M 157.925781 538.050781 " fill-opacity="1" fill-rule="nonzero"/>
  <path fill="#444e5e" d="M 134.582031 619.074219 C 135.902344 619.394531 138.253906 618.429688 138.15625 620.328125 C 138.027344 623 135.292969 622.582031 133.390625 622.582031 C 132.136719 622.582031 129.882812 623.386719 129.914062 621.296875 C 130.011719 618.238281 132.84375 619.492188 134.582031 619.074219 Z M 134.582031 619.074219 " fill-opacity="1" fill-rule="nonzero"/>
  <path fill="#febb02" d="M 338.589844 345.273438 C 332.4375 333.144531 323.585938 323.074219 314.3125 313.355469 C 300.660156 299.101562 288.648438 283.816406 281.984375 264.894531 C 259.800781 202.019531 297.699219 134.125 362.996094 118.421875 C 391.039062 111.664062 418.601562 113.304688 444.777344 125.5 C 474.722656 139.464844 495.425781 161.894531 502.089844 195.101562 C 507.980469 224.285156 501.703125 251.378906 485.667969 276.253906 C 478.714844 287.035156 471.308594 297.585938 464.160156 308.238281 C 463.355469 309.429688 462.777344 310.78125 462.101562 312.035156 C 459.460938 317.3125 457.269531 322.847656 453.695312 327.640625 C 448.480469 337.070312 445.871094 347.367188 443.265625 357.695312 C 441.878906 363.070312 441.011719 368.507812 440.496094 374.042969 C 440.042969 379.15625 438.464844 380.316406 433.347656 379.511719 C 430.449219 379.0625 427.519531 379.351562 424.589844 379.222656 C 421.660156 379.0625 419.886719 378.417969 420.949219 374.683594 C 422.175781 370.46875 421.402344 365.996094 421.371094 361.621094 C 421.371094 360.011719 420.726562 358.691406 418.859375 358.660156 C 416.765625 358.628906 416.089844 360.011719 416.058594 361.8125 C 415.992188 366.191406 415.574219 370.597656 416.1875 374.910156 C 416.539062 377.355469 416.636719 378.804688 413.738281 379.15625 C 409.648438 379.671875 407.042969 378.707031 406.816406 375.84375 C 406.527344 372.496094 405.625 369.183594 405.753906 365.867188 C 406.238281 353.898438 404.496094 342.023438 403.855469 330.121094 C 403.597656 325.195312 404.304688 321.429688 410.066406 320.628906 C 410.746094 320.53125 411.355469 319.953125 411.933594 319.53125 C 415.027344 317.472656 415.894531 314.546875 415.027344 311.132812 C 414.1875 307.722656 411.292969 306.984375 408.296875 306.46875 C 401.792969 305.375 401.34375 304.890625 401.308594 298.328125 C 401.277344 292.34375 401.34375 286.359375 401.308594 280.371094 C 401.277344 277.636719 402.339844 275.804688 404.660156 274.226562 C 416.378906 266.40625 419.339844 254.695312 419.179688 241.503906 C 419.082031 232.042969 415.414062 223.964844 410.421875 216.242188 C 407.332031 211.449219 404.691406 206.394531 402.242188 201.28125 C 401.40625 199.574219 400.570312 197.871094 399.25 196.453125 C 396.996094 194.105469 395.449219 194.234375 393.613281 196.871094 C 392.777344 198.0625 392.199219 199.414062 391.585938 200.734375 C 388.207031 207.683594 384.632812 214.539062 380.058594 220.8125 C 372.300781 231.527344 371.078125 243.722656 372.332031 256.335938 C 373.265625 265.472656 378.578125 271.8125 386.339844 276.316406 C 387.335938 276.898438 388.464844 277.285156 389.300781 278.152344 C 390.296875 279.34375 390.492188 280.757812 390.492188 282.238281 C 390.554688 288.320312 390.492188 294.402344 390.523438 300.484375 C 390.523438 303.605469 389.234375 305.085938 386.015625 305.632812 C 381.21875 306.4375 376.132812 306.082031 371.71875 308.722656 C 367.792969 314.480469 370.335938 321.464844 376.839844 322.945312 C 378.707031 323.363281 380.605469 323.234375 382.507812 323.265625 C 390.234375 323.328125 390.492188 323.621094 390.554688 331.503906 C 390.589844 338.484375 390.105469 345.5 391.457031 352.417969 C 392.90625 359.789062 392.199219 367.253906 392.230469 374.652344 C 392.261719 379.03125 391.359375 379.996094 387.175781 379.960938 C 383.601562 379.929688 380.253906 380.734375 376.839844 381.476562 C 375.679688 381.730469 374.230469 381.605469 373.714844 380.445312 C 373.203125 379.285156 374.648438 378.867188 375.292969 378.160156 C 375.550781 377.808594 375.839844 377.453125 376.097656 377.097656 C 376.96875 375.8125 376.582031 374.265625 376.902344 372.851562 C 377.128906 371.855469 377.386719 370.726562 378.644531 370.664062 C 379.964844 370.597656 380.1875 371.757812 380.511719 372.722656 C 380.832031 373.6875 380.832031 374.75 381.734375 375.457031 C 383.023438 372.304688 382.699219 370.085938 379.996094 368.25 C 376.648438 365.996094 375.519531 363.003906 375.875 359.238281 C 376.421875 353.191406 374.394531 347.785156 371.847656 342.507812 C 364.316406 324.328125 351.660156 309.910156 338.007812 296.140625 C 327.996094 286.003906 319.207031 274.871094 315.277344 260.777344 C 309.515625 240.214844 310.15625 219.847656 317.949219 199.832031 C 323.101562 186.574219 331.117188 175.183594 341.066406 165.082031 C 341.808594 164.339844 342.515625 163.601562 343.613281 163.535156 C 346.1875 164.179688 345.316406 166.816406 346.414062 168.296875 C 350.792969 171.195312 350.535156 174.378906 347.957031 178.691406 C 345.609375 182.617188 343.835938 186.992188 341.808594 191.175781 C 340.648438 193.558594 339.84375 196.035156 339.617188 198.640625 C 339.363281 201.570312 340.390625 203.179688 343.644531 202.050781 C 343.933594 201.796875 344.222656 201.539062 344.546875 201.28125 C 348.441406 196.261719 350.019531 190.113281 352.917969 184.578125 C 354.882812 180.878906 357.230469 177.660156 360.933594 175.632812 C 361.804688 175.152344 362.351562 174.925781 362.09375 173.832031 C 361.964844 173.285156 362.351562 172.417969 362.800781 172.351562 C 368.4375 171.742188 369.917969 165.691406 374.554688 163.601562 C 379.222656 161.507812 383.792969 159.160156 388.914062 158.675781 C 396.929688 157.90625 404.917969 158.453125 412.707031 160.734375 C 417.375 162.085938 417.410156 161.925781 420.949219 157.808594 C 417.183594 156.777344 416.734375 152.886719 414.414062 150.535156 C 413.351562 149.441406 413.933594 148.765625 415.125 148.316406 C 417.890625 147.285156 423.429688 149.957031 424.816406 153.011719 C 425.683594 154.910156 432.863281 157.390625 435.3125 156.617188 C 435.761719 156.488281 436.179688 156.457031 436.632812 156.519531 C 451.183594 163.761719 462.808594 174.15625 470.179688 188.761719 C 474.175781 196.679688 476.523438 205.207031 478.390625 213.957031 C 479.519531 219.300781 479.648438 224.609375 480 229.949219 C 480.902344 243.238281 477.167969 255.628906 473.113281 268.015625 C 472.691406 269.269531 472.050781 270.429688 472.082031 271.78125 C 469.375 280.984375 464.320312 289.027344 459.554688 297.234375 C 457.945312 300 456.238281 302.734375 454.855469 305.632812 C 454.308594 306.757812 453.246094 308.304688 454.660156 309.171875 C 456.109375 310.074219 457.011719 308.464844 457.65625 307.371094 C 460.167969 303.058594 463.675781 299.421875 466.125 295.140625 C 472.820312 283.492188 480.164062 272.136719 485.121094 259.617188 C 496.808594 230.109375 494.039062 201.441406 477.136719 174.957031 C 459.265625 146.964844 432.765625 133.222656 399.441406 132.613281 C 378.609375 132.226562 359.421875 137.019531 342.742188 149.859375 C 319.398438 168.074219 305.359375 191.722656 301.335938 221.101562 C 297.34375 250.222656 305.523438 275.320312 326.257812 296.269531 C 335.59375 305.695312 345.445312 314.675781 353.65625 325.195312 C 363.894531 338.355469 368.757812 353.382812 370.238281 369.699219 C 370.496094 372.464844 371.078125 375.167969 371.335938 377.933594 C 371.429688 379.609375 372.105469 381.667969 369.820312 382.3125 C 367.117188 383.050781 364.1875 385.238281 361.578125 381.988281 C 360.871094 380.316406 361.191406 378.546875 360.964844 376.808594 C 360.773438 375.296875 360.964844 373.527344 359.066406 372.820312 C 358.199219 375.585938 359.097656 378.160156 359.679688 380.800781 C 360.613281 385.046875 359.003906 386.496094 354.589844 385.53125 C 351.179688 376.777344 348.988281 367.574219 345.1875 358.949219 C 343.128906 354.347656 340.683594 349.910156 338.589844 345.273438 Z M 338.589844 345.273438 " fill-opacity="1" fill-rule="nonzero"/>
  <path fill="#65c8e3" d="M 266.722656 273.648438 C 261.765625 263.285156 259.125 252.25 257.902344 240.988281 C 253.78125 202.4375 264.628906 168.363281 290.164062 139.371094 C 313.894531 112.375 344.289062 97.476562 379.867188 93.003906 C 405.335938 89.785156 430.449219 91.425781 454.339844 101.207031 C 492.753906 116.910156 520.054688 143.457031 528.167969 185.222656 C 535.058594 220.714844 528.074219 254.375 507.242188 284.425781 C 498.355469 297.265625 488.4375 309.363281 479.390625 322.105469 C 469.570312 335.945312 462.550781 351.066406 460.84375 368.28125 C 460.296875 373.882812 460.8125 378.804688 466.222656 381.925781 C 468.152344 383.050781 468.152344 384.050781 466.253906 385.367188 C 461.101562 388.972656 455.113281 390.355469 449.15625 391.738281 C 446.484375 392.351562 447.386719 389.96875 447.449219 388.8125 C 448.285156 372.433594 450.703125 356.34375 456.433594 340.835938 C 462.261719 325.066406 471.277344 311.167969 480.902344 297.554688 C 492.914062 280.597656 504.148438 263.191406 508.820312 242.53125 C 520.023438 192.722656 501.765625 145.613281 453.503906 121.640625 C 403.433594 96.800781 354.589844 101.949219 310.671875 136.957031 C 284.238281 158 270.492188 186.769531 268.109375 220.746094 C 266.980469 237.03125 269.589844 252.699219 274.578125 268.082031 C 272.390625 270.527344 268.945312 271.234375 266.722656 273.648438 Z M 266.722656 273.648438 " fill-opacity="1" fill-rule="nonzero"/>
  <path fill="#191f2b" d="M 338.589844 345.273438 C 345.640625 356.152344 349.859375 368.1875 353.335938 380.542969 C 353.753906 382.054688 354.332031 383.566406 354.847656 385.046875 C 355.621094 385.691406 356.296875 386.332031 357.519531 385.820312 C 368.46875 381.21875 380.15625 380.285156 391.8125 379.15625 C 393.292969 379.191406 393.101562 381.859375 395.355469 381.21875 C 394.453125 379.832031 392.132812 380.089844 392.070312 378.191406 C 392.421875 361.136719 389.65625 344.214844 390.265625 327.191406 C 390.363281 324.550781 389.300781 323.492188 386.691406 323.621094 C 384.503906 323.75 382.3125 323.652344 380.125 323.652344 C 370.65625 323.554688 366.890625 317.699219 370.59375 308.785156 C 373.265625 305.953125 377 306.210938 380.347656 305.792969 C 389.785156 304.667969 389.816406 304.828125 389.816406 295.398438 C 389.816406 290.894531 389.816406 286.359375 389.816406 281.851562 C 389.816406 280.40625 390.105469 278.859375 388.464844 278.023438 C 380.832031 275.289062 375.132812 270.367188 372.75 262.546875 C 368.953125 250.0625 369.628906 237.578125 375.808594 226.023438 C 381.15625 216.015625 388.042969 206.878906 392.519531 196.324219 C 394.417969 191.851562 398.542969 191.820312 400.730469 196.195312 C 405.527344 205.882812 411.871094 214.730469 416.410156 224.511719 C 422.785156 238.316406 422.207031 252.25 414.800781 265.699219 C 412.417969 270.011719 409.199219 273.582031 404.691406 275.675781 C 402.792969 276.574219 402.179688 277.703125 402.242188 279.695312 C 402.46875 287 402.664062 294.304688 402.628906 301.578125 C 402.628906 304.121094 403.660156 304.925781 405.914062 304.957031 C 406.945312 304.957031 407.976562 305.054688 408.972656 305.214844 C 412.289062 305.761719 415.414062 306.855469 416.3125 310.492188 C 417.25 314.222656 416.925781 317.796875 413.125 320.078125 C 411.582031 320.851562 410.003906 321.785156 408.265625 321.851562 C 404.949219 321.945312 404.078125 323.621094 404.304688 326.644531 C 405.269531 341.027344 406.238281 355.378906 406.816406 369.792969 C 406.847656 370.375 406.976562 370.953125 406.945312 371.53125 C 406.71875 379.414062 406.238281 378.773438 414.929688 378.417969 C 421.046875 378.160156 427.070312 378.484375 433.121094 379.0625 C 439.269531 379.671875 439.304688 379.867188 440.078125 373.558594 C 442.074219 357.117188 446.289062 341.285156 453.535156 326.355469 C 456.789062 321.851562 458.527344 316.410156 462.132812 312.066406 C 459.976562 320.015625 456.464844 327.351562 452.152344 334.367188 C 449.511719 338.613281 448.671875 343.570312 447.417969 348.332031 C 445.195312 356.632812 444.9375 365.320312 442.363281 373.625 C 441.460938 376.550781 441.910156 379.800781 439.691406 382.535156 C 438.628906 383.855469 439.109375 385.949219 440.109375 387.847656 C 440.914062 389.359375 442.523438 391.707031 439.273438 392.867188 C 438.015625 389.421875 435.472656 388.167969 431.898438 387.878906 C 421.402344 386.976562 410.9375 387.203125 400.410156 387.75 C 388.398438 388.394531 376.582031 390.003906 364.894531 392.738281 C 361.449219 393.542969 358.582031 394.828125 356.941406 398.144531 C 354.816406 397.175781 354.753906 395.441406 355.75 393.800781 C 357.070312 391.609375 356.265625 390.355469 354.847656 388.523438 C 352.691406 385.65625 352.464844 381.859375 351.371094 378.449219 C 348.25 368.667969 344.996094 358.917969 340.167969 349.78125 C 339.394531 348.332031 338.363281 347.011719 338.589844 345.273438 Z M 338.589844 345.273438 " fill-opacity="1" fill-rule="nonzero"/>
  <path fill="#f87751" d="M 364.925781 444.832031 C 396.996094 444.734375 428.742188 441.101562 460.425781 436.402344 C 461.875 436.175781 463.324219 436.113281 464.773438 435.886719 C 466.992188 435.535156 467.832031 436.5625 468.347656 438.621094 C 471.148438 450.238281 470.34375 451.847656 458.847656 453.875 C 438.980469 457.382812 418.859375 458.796875 398.765625 460.308594 C 381.992188 461.566406 365.183594 461.46875 348.375 461.277344 C 344.320312 461.242188 342.386719 459.890625 341.710938 455.675781 C 339.941406 444.734375 339.746094 444.769531 350.46875 444.800781 C 354.269531 444.832031 358.070312 444.832031 361.867188 444.832031 C 362.867188 444.832031 363.894531 444.832031 364.925781 444.832031 Z M 364.925781 444.832031 " fill-opacity="1" fill-rule="nonzero"/>
  <path fill="#5ac7e2" d="M 266.722656 273.648438 C 267.980469 269.851562 271.101562 268.722656 274.578125 268.082031 C 282.46875 288.480469 295.574219 305.277344 310.800781 320.660156 C 317.304688 327.222656 322.941406 334.464844 328.058594 342.121094 C 338.847656 358.308594 344.804688 376.292969 348.503906 395.214844 C 349.148438 398.464844 347.863281 399.171875 345.125 398.820312 C 342.96875 398.5625 340.746094 398.433594 338.652344 397.851562 C 334.050781 396.566406 333.695312 395.472656 336.59375 391.738281 C 338.878906 388.746094 338.652344 385.53125 337.878906 382.152344 C 333.082031 360.882812 321.554688 343.375 307.066406 327.546875 C 296.925781 316.476562 285.847656 306.210938 277.476562 293.566406 C 273.324219 287.257812 269.429688 280.757812 266.722656 273.648438 Z M 266.722656 273.648438 " fill-opacity="1" fill-rule="nonzero"/>
  <path fill="#eb6942" d="M 380.734375 498.632812 C 377.839844 496.863281 375.617188 488.046875 377.386719 485.375 C 378.257812 484.058594 379.640625 484.25 380.929688 484.21875 C 399.636719 484.152344 418.214844 482.480469 436.695312 479.714844 C 442.75 478.8125 448.769531 477.652344 454.757812 476.429688 C 458.203125 475.722656 458.976562 476.945312 458.140625 480.097656 C 457.269531 483.445312 455.210938 485.761719 452.472656 487.597656 C 447.933594 490.621094 442.84375 492.390625 437.53125 493.515625 C 432.542969 493.324219 427.808594 495.03125 422.945312 495.671875 C 408.910156 497.476562 394.871094 498.664062 380.734375 498.632812 Z M 380.734375 498.632812 " fill-opacity="1" fill-rule="nonzero"/>
  <path fill="#e96844" d="M 383.570312 478.234375 C 375.839844 479.003906 369.5625 478.296875 363.285156 478.136719 C 358.679688 478.007812 360.546875 474.628906 360.128906 472.410156 C 359.644531 469.835938 361 469.222656 363.382812 469.222656 C 393.679688 469.289062 423.785156 466.746094 453.761719 462.5 C 456.464844 462.113281 457.011719 463.65625 456.820312 465.425781 C 456.59375 467.390625 459.910156 470.542969 455.304688 471.25 C 447.964844 472.410156 440.589844 473.472656 433.21875 474.4375 C 416.25 476.6875 399.25 478.265625 383.570312 478.234375 Z M 383.570312 478.234375 " fill-opacity="1" fill-rule="nonzero"/>
  <path fill="#f4724c" d="M 373.105469 405.996094 C 391.328125 405.191406 409.617188 405.449219 427.710938 402.519531 C 438.5 400.78125 449.414062 399.6875 459.910156 396.4375 C 461.90625 395.824219 463.453125 395.375 464.355469 398.015625 C 465.289062 400.71875 463.902344 401.777344 461.777344 402.582031 C 454.179688 405.351562 446.257812 406.574219 438.304688 407.667969 C 408.746094 411.785156 378.996094 412.816406 349.183594 412.238281 C 346.703125 412.203125 344.222656 412.042969 341.777344 411.691406 C 340.425781 411.496094 338.136719 411.945312 338.78125 409.179688 C 339.234375 407.25 339.8125 405.832031 342.453125 405.898438 C 352.660156 406.121094 362.898438 405.996094 373.105469 405.996094 Z M 373.105469 405.996094 " fill-opacity="1" fill-rule="nonzero"/>
  <path fill="#febc01" d="M 356.878906 398.078125 C 355.945312 394.636719 357.585938 393.21875 360.804688 392.382812 C 385.46875 385.980469 410.453125 384.5625 435.761719 386.914062 C 440.140625 387.332031 439.335938 390.097656 439.207031 392.800781 C 412.03125 398.398438 384.4375 398.207031 356.878906 398.078125 Z M 356.878906 398.078125 " fill-opacity="1" fill-rule="nonzero"/>
  <path fill="#f4764a" d="M 449.800781 422.117188 C 450.667969 430.222656 450.703125 430.386719 443.648438 431.285156 C 415.960938 434.792969 388.171875 437.304688 360.226562 437.433594 C 353.753906 437.464844 353.140625 436.433594 355.234375 429.902344 C 356.910156 428.453125 358.96875 428.390625 361.03125 428.421875 C 389.234375 428.808594 417.214844 426.425781 444.9375 421.246094 C 446.613281 420.925781 448.382812 420.539062 449.800781 422.117188 Z M 449.800781 422.117188 " fill-opacity="1" fill-rule="nonzero"/>
  <path fill="#e25f47" d="M 354.332031 425.203125 C 353.175781 420.890625 354.914062 419.863281 359.164062 419.894531 C 388.042969 420.023438 416.828125 418.316406 445.453125 414.296875 C 449.1875 413.78125 448.609375 416.195312 448.929688 418.222656 C 447.546875 420.25 445.324219 420.539062 443.199219 420.957031 C 429.289062 423.628906 415.1875 424.367188 401.148438 425.785156 C 388.398438 427.101562 375.550781 426.683594 362.769531 426.714844 C 359.839844 426.78125 357.007812 426.425781 354.332031 425.203125 Z M 354.332031 425.203125 " fill-opacity="1" fill-rule="nonzero"/>
  <path fill="#25222d" d="M 354.332031 425.203125 C 374.585938 426.039062 394.742188 425.238281 414.898438 423.082031 C 424.878906 422.019531 434.859375 421.3125 444.714844 419.285156 C 446.128906 418.992188 447.515625 418.609375 448.929688 418.253906 C 449.21875 419.542969 449.511719 420.828125 449.800781 422.148438 C 441.78125 423.339844 433.765625 424.59375 425.714844 425.71875 C 402.339844 428.96875 378.835938 430.386719 355.203125 429.902344 C 356.910156 427.972656 356.714844 426.394531 354.332031 425.203125 Z M 354.332031 425.203125 " fill-opacity="1" fill-rule="nonzero"/>
  <path fill="#de836e" d="M 380.734375 498.632812 C 386.144531 497.570312 391.683594 497.894531 397.15625 497.441406 C 409.425781 496.414062 421.691406 495.511719 433.796875 493.097656 C 435.085938 492.839844 436.40625 492.519531 437.53125 493.515625 C 418.859375 497.828125 399.925781 499.726562 380.734375 498.632812 Z M 380.734375 498.632812 " fill-opacity="1" fill-rule="nonzero"/>
  <path fill="#d4634a" d="M 367.503906 488.496094 C 367.792969 487.371094 366.535156 485.375 368.4375 484.21875 C 370.65625 482.898438 372.847656 484.445312 372.976562 487.144531 C 373.074219 489.753906 373.296875 492.359375 373.75 494.902344 C 374.199219 497.507812 373.007812 497.636719 371.140625 496.929688 C 367.308594 495.511719 367.40625 492.199219 367.503906 488.496094 Z M 367.503906 488.496094 " fill-opacity="1" fill-rule="nonzero"/>
  <path fill="#8d534f" d="M 363.765625 489.527344 C 361.0625 488.304688 360.128906 486.40625 360.804688 483.929688 C 360.871094 483.671875 361.898438 483.347656 362.253906 483.511719 C 365.152344 484.925781 363.15625 487.53125 363.765625 489.527344 Z M 363.765625 489.527344 " fill-opacity="1" fill-rule="nonzero"/>
  <path fill="#1a2537" d="M 407.589844 588.472656 C 416.25 577.855469 427.421875 570.90625 440.109375 566.175781 C 441.71875 565.5625 443.230469 564.757812 444.777344 564.019531 C 467.058594 556.875 490.078125 554.496094 513.292969 553.625 C 546.78125 552.339844 580.167969 554.042969 613.558594 556.683594 C 619.097656 557.132812 624.632812 557.488281 630.171875 557.871094 C 632.039062 558 634.003906 558.257812 634.003906 560.511719 C 634.003906 563.277344 631.492188 562.570312 630.011719 562.507812 C 615.007812 561.605469 600.003906 560.382812 584.964844 559.640625 C 560.753906 558.417969 536.507812 557.582031 512.230469 558.675781 C 486.054688 559.867188 460.070312 562.023438 435.632812 572.675781 C 432.445312 574.058594 429.386719 575.796875 426.261719 577.339844 C 421.207031 581.878906 415.316406 585.222656 409.84375 589.117188 C 409.167969 589.535156 407.878906 590.308594 407.589844 588.472656 Z M 407.589844 588.472656 " fill-opacity="1" fill-rule="nonzero"/>
  <path fill="#192537" d="M 428.035156 579.753906 C 458.042969 568.714844 489.339844 565.820312 520.957031 564.855469 C 556.503906 563.761719 591.953125 565.757812 627.4375 567.460938 C 630.074219 567.589844 632.683594 567.527344 635.324219 567.65625 C 637.03125 567.75 638.671875 568.234375 638.703125 570.324219 C 638.738281 572.675781 636.835938 572.675781 635.261719 572.609375 C 628.242188 572.320312 621.253906 572.03125 614.234375 571.613281 C 587.542969 570.035156 560.820312 568.910156 534.0625 569.328125 C 504.246094 569.8125 474.496094 571.453125 445.390625 578.691406 C 430.257812 582.457031 416.1875 588.410156 403.660156 598.511719 C 403.820312 595.777344 406.109375 594.8125 407.007812 593.011719 C 412.644531 586.382812 419.339844 581.523438 428.035156 579.753906 Z M 428.035156 579.753906 " fill-opacity="1" fill-rule="nonzero"/>
  <path fill="#1c2639" d="M 384.179688 602.117188 C 379.542969 598.0625 374.265625 595.296875 368.273438 593.878906 C 357.457031 589.117188 345.898438 587.605469 334.273438 586.863281 C 311.992188 585.417969 289.875 587.285156 267.882812 590.726562 C 238.453125 595.328125 209.089844 600.121094 179.660156 604.789062 C 176.503906 605.300781 173.285156 605.527344 170.066406 605.722656 C 168.488281 605.816406 166.585938 605.914062 166.265625 603.757812 C 165.910156 601.410156 167.875 601.25 169.453125 601.121094 C 207.351562 598.160156 244.378906 589.117188 282.050781 584.484375 C 309.160156 581.136719 336.207031 580.011719 363.027344 586.734375 C 371.558594 588.890625 379.542969 592.429688 386.628906 597.742188 C 388.078125 598.835938 389.203125 600.058594 387.851562 602.148438 C 386.46875 604.207031 385.40625 602.4375 384.179688 602.117188 Z M 384.179688 602.117188 " fill-opacity="1" fill-rule="nonzero"/>
  <path fill="#1c2638" d="M 360.355469 574.445312 C 368.597656 576.859375 376.871094 579.109375 384.050781 584.128906 C 388.367188 587.574219 393.742188 590.210938 393.808594 596.90625 C 392.199219 597.773438 391.457031 596.550781 390.75 595.808594 C 378.546875 583.230469 362.703125 579.207031 346.15625 577.082031 C 316.886719 573.316406 287.84375 576.472656 258.835938 580.140625 C 231.175781 583.613281 203.871094 589.277344 176.152344 592.429688 C 172.964844 592.785156 169.742188 592.6875 166.523438 592.753906 C 164.976562 592.785156 163.914062 592.046875 163.882812 590.46875 C 163.851562 588.699219 165.398438 588.988281 166.460938 588.957031 C 194.566406 587.765625 221.871094 580.945312 249.625 577.371094 C 273.679688 574.285156 297.699219 570.9375 322.007812 571 C 334.917969 571.066406 347.667969 572.417969 360.355469 574.445312 Z M 360.355469 574.445312 " fill-opacity="1" fill-rule="nonzero"/>
  <path fill="#1c2739" d="M 394.355469 577.535156 C 386.046875 557.742188 369.015625 550.3125 349.953125 545.96875 C 339.554688 543.585938 328.898438 542.652344 318.238281 542.332031 C 296.378906 541.65625 274.804688 544.488281 253.265625 547.703125 C 230.886719 551.050781 208.542969 554.6875 185.84375 555.460938 C 184.683594 555.492188 183.492188 555.652344 182.332031 555.523438 C 180.914062 555.363281 178.660156 556.296875 178.597656 553.785156 C 178.535156 551.179688 180.882812 552.015625 182.234375 551.953125 C 213.660156 550.472656 244.570312 544.550781 275.707031 540.625 C 303.269531 537.148438 330.765625 536.21875 358.003906 542.878906 C 367.726562 545.257812 376.742188 549.347656 384.535156 555.78125 C 391.230469 561.414062 394.292969 568.75 394.355469 577.535156 Z M 394.355469 577.535156 " fill-opacity="1" fill-rule="nonzero"/>
  <path fill="#1f2737" d="M 291.773438 533.0625 C 290.808594 535.027344 289.164062 534.574219 287.8125 534.671875 C 264.210938 536.347656 240.804688 539.980469 217.300781 542.460938 C 204.515625 543.8125 191.765625 545.613281 178.886719 545.515625 C 177.503906 545.515625 175.3125 546.351562 175.152344 543.8125 C 174.960938 540.949219 177.375 542.074219 178.660156 542.007812 C 197.625 541.011719 216.429688 538.117188 235.296875 536.3125 C 251.847656 534.738281 268.398438 532.839844 285.042969 532.226562 C 287.265625 532.128906 289.648438 531.648438 291.773438 533.0625 Z M 291.773438 533.0625 " fill-opacity="1" fill-rule="nonzero"/>
  <path fill="#1f293c" d="M 285.625 527.433594 C 278.476562 532.644531 179.113281 533.996094 169.9375 529.234375 C 208.507812 531.648438 247.019531 525.695312 285.625 527.433594 Z M 285.625 527.433594 " fill-opacity="1" fill-rule="nonzero"/>
  <path fill="#d5dbe0" d="M 428.035156 579.753906 C 420.339844 583.101562 413.480469 587.734375 406.976562 592.980469 C 406.203125 591.660156 404.722656 593.75 403.886719 592.207031 C 404.820312 591.015625 405.785156 589.792969 406.75 588.539062 C 407.042969 588.507812 407.332031 588.507812 407.621094 588.472656 C 411.742188 588.214844 413.933594 584.710938 417.054688 582.746094 C 420.082031 580.847656 422.914062 578.628906 426.296875 577.277344 C 426.132812 578.59375 426.457031 579.625 428.035156 579.753906 Z M 428.035156 579.753906 " fill-opacity="1" fill-rule="nonzero"/>
  <path fill="#394048" d="M 154.835938 575.214844 C 155.191406 574.089844 154.191406 572.0625 156.1875 572.128906 C 158.183594 572.191406 158.214844 574.316406 158.441406 575.859375 C 158.636719 577.277344 158.214844 578.660156 156.476562 578.59375 C 154.128906 578.464844 155.191406 576.4375 154.835938 575.214844 Z M 154.835938 575.214844 " fill-opacity="1" fill-rule="nonzero"/>
  <path fill="#3f4042" d="M 633.519531 500.789062 C 632.621094 500.789062 631.589844 500.660156 631.558594 499.597656 C 631.523438 498.28125 632.683594 498.152344 633.714844 498.117188 C 634.550781 498.117188 635.710938 498.054688 635.679688 499.179688 C 635.679688 500.308594 634.550781 500.628906 633.519531 500.789062 Z M 633.519531 500.789062 " fill-opacity="1" fill-rule="nonzero"/>
  <path fill="#2e3334" d="M 606.667969 486.984375 C 605.992188 486.855469 605.089844 486.984375 605.089844 485.988281 C 605.121094 484.734375 606.183594 484.410156 607.152344 484.25 C 607.957031 484.121094 608.535156 484.539062 608.601562 485.410156 C 608.792969 486.855469 607.699219 486.890625 606.667969 486.984375 Z M 606.667969 486.984375 " fill-opacity="1" fill-rule="nonzero"/>
  <path fill="#fef1bd" d="M 343.742188 164.019531 C 330.347656 177.148438 320.011719 192.335938 315.726562 210.644531 C 308.871094 239.925781 312.507812 267.082031 334.050781 290.121094 C 343.613281 300.324219 353.753906 310.074219 361.738281 321.6875 C 366.148438 328.09375 369.660156 334.945312 372.652344 342.089844 C 375.292969 348.71875 376.484375 355.507812 376.808594 362.683594 C 377.066406 367.800781 378.191406 372.851562 376.96875 378 L 377 377.96875 C 374.714844 379.898438 372.398438 380.863281 370.144531 377.933594 C 369.082031 370.597656 368.308594 363.199219 366.890625 355.894531 C 363.542969 338.742188 353.5625 325.390625 341.746094 313.160156 C 334.050781 305.183594 325.546875 297.972656 318.5625 289.285156 C 307.550781 275.644531 301.046875 260.292969 299.695312 242.628906 C 297.664062 216.113281 304.652344 192.140625 320.300781 171.097656 C 342.679688 140.980469 372.910156 127.945312 410.453125 132.195312 C 432.542969 134.671875 451.25 144.035156 466.734375 159.640625 C 493.234375 186.316406 501.21875 230.402344 484.574219 264.25 C 476.910156 279.859375 468.21875 294.851562 458.171875 309.042969 C 456.949219 310.75 455.628906 312.261719 453.566406 311.132812 C 451.152344 309.816406 452.632812 307.789062 453.4375 306.179688 C 458.140625 296.785156 464.320312 288.222656 468.507812 278.539062 C 469.441406 276.414062 470.859375 274.484375 471.050781 272.070312 C 474.882812 262.160156 478.457031 252.152344 479.421875 241.46875 C 480.808594 226.476562 478.875 211.929688 473.722656 197.707031 C 468.699219 183.839844 459.976562 172.804688 448.609375 163.824219 C 442.910156 159.320312 436.339844 156.007812 429.613281 153.140625 C 407.78125 143.875 385.886719 144.90625 363.992188 152.917969 C 360.066406 151.757812 357.101562 153.304688 354.429688 156.070312 C 352.851562 157.710938 351.371094 159.511719 349.375 160.703125 C 347.023438 161.058594 345.929688 163.472656 343.742188 164.019531 Z M 343.742188 164.019531 " fill-opacity="1" fill-rule="nonzero"/>
  <path fill="#febc1b" d="M 363.285156 152.789062 C 366.019531 149.730469 370.046875 149.507812 373.554688 148.574219 C 400.441406 141.6875 425.492188 145.902344 447.933594 162.378906 C 466.414062 175.957031 476.300781 194.875 479.648438 217.335938 C 482.125 233.8125 480.386719 249.902344 474.207031 265.410156 C 473.304688 267.695312 472.820312 270.203125 471.050781 272.070312 C 472.273438 267.757812 473.238281 263.351562 474.816406 259.167969 C 479.550781 246.554688 479.710938 233.359375 478.585938 220.363281 C 477.910156 212.640625 475.300781 205.011719 472.691406 197.515625 C 467.925781 183.871094 459.332031 173.382812 448.222656 164.628906 C 446.515625 163.277344 445.097656 160.511719 441.945312 162.472656 C 440.753906 163.214844 440.332031 161.539062 439.980469 160.703125 C 439.207031 158.773438 437.695312 157.742188 435.890625 157.035156 C 434.667969 156.261719 433.121094 156.328125 431.738281 155.265625 C 433.089844 156.425781 434.667969 156.328125 435.921875 157.035156 C 434.28125 159.675781 431.511719 159.511719 429.902344 158.066406 C 427.550781 155.941406 424.558594 154.878906 422.269531 152.820312 C 422.691406 151.113281 424.136719 153.140625 424.878906 151.757812 C 421.628906 150.761719 418.535156 149.34375 414.929688 149.3125 C 417.539062 150.277344 417.183594 152.917969 418.277344 154.6875 C 419.566406 156.746094 421.691406 157.195312 424.105469 157.550781 C 421.917969 158.742188 420.46875 160.511719 418.890625 162.183594 C 417.632812 163.535156 416.28125 162.859375 414.867188 162.472656 C 405.238281 159.804688 395.515625 158.484375 385.566406 160.574219 C 380.21875 161.703125 375.679688 164.535156 371.109375 167.269531 C 370.433594 167.65625 369.917969 168.621094 369.722656 169.425781 C 369.175781 171.773438 368.628906 173.769531 365.472656 172.320312 C 364.347656 171.804688 363.285156 172.675781 363.058594 173.640625 C 362.640625 175.3125 365.25 173.992188 365.25 175.761719 C 355.589844 177.277344 354.011719 185.929688 350.535156 192.914062 C 348.859375 196.292969 348.054688 200.21875 344.640625 202.566406 C 343.644531 201.085938 344.480469 199.734375 345.027344 198.417969 C 349.601562 187.796875 354.589844 177.46875 363.445312 169.457031 C 374.070312 159.835938 386.339844 156.007812 400.472656 157.359375 C 405.140625 157.808594 409.714844 158.710938 414.285156 159.738281 C 415.507812 159.996094 417.183594 160.511719 417.601562 158.742188 C 417.925781 157.359375 416.441406 156.84375 415.414062 156.390625 C 411.226562 154.589844 406.847656 153.367188 402.308594 152.949219 C 375.199219 150.535156 357.007812 163.117188 345.867188 186.382812 C 344.417969 189.40625 343.191406 192.527344 342.097656 195.714844 C 341.003906 198.867188 341.550781 201.085938 344.675781 202.503906 C 343.996094 204.496094 342.710938 204.046875 341.164062 203.597656 C 339.554688 203.113281 338.652344 202.308594 338.589844 200.570312 C 338.492188 197.289062 339.167969 194.136719 340.746094 191.335938 C 343.933594 185.707031 345.703125 179.367188 349.535156 174.058594 C 350.375 172.898438 349.601562 172.222656 348.601562 171.644531 C 347.476562 171 346.121094 170.648438 345.609375 169.261719 C 345.898438 168.941406 346.21875 168.714844 346.574219 168.523438 C 348.441406 168.074219 350.148438 167.398438 351.339844 165.722656 C 353.851562 162.28125 356.8125 159.289062 360.226562 156.777344 C 361.609375 155.78125 361.996094 153.945312 363.285156 152.789062 Z M 363.285156 152.789062 " fill-opacity="1" fill-rule="nonzero"/>
  <path fill="#fdf0c2" d="M 439.238281 314.578125 C 440.140625 311.972656 441.140625 308.59375 442.460938 305.375 C 450.089844 286.90625 458.363281 268.691406 463.417969 249.257812 C 463.933594 247.261719 464.386719 244.71875 467.15625 245.429688 C 470.117188 246.167969 469.34375 248.933594 468.925781 250.960938 C 466.609375 262.160156 462.9375 272.941406 458.460938 283.429688 C 453.824219 294.304688 448.964844 305.085938 444.199219 315.929688 C 443.488281 317.503906 442.585938 318.824219 440.589844 318.277344 C 439.144531 317.859375 439.238281 316.539062 439.238281 314.578125 Z M 439.238281 314.578125 " fill-opacity="1" fill-rule="nonzero"/>
  <path fill="#edbf52" d="M 453.503906 326.324219 C 450.058594 336.070312 446.03125 345.597656 443.777344 355.734375 C 442.234375 362.714844 441.011719 369.761719 440.367188 376.875 C 440.140625 379.320312 439.496094 380.21875 436.984375 379.929688 C 427.808594 378.933594 418.601562 378.738281 409.390625 378.933594 C 407.136719 378.996094 406.300781 378.226562 406.171875 376.003906 C 405.335938 358.949219 404.433594 341.863281 403.46875 324.808594 C 403.339844 322.558594 404.078125 321.6875 406.269531 321.429688 C 408.554688 321.140625 410.808594 320.53125 413.09375 320.046875 C 412.355469 321.304688 411.035156 321.976562 409.84375 322.074219 C 404.882812 322.398438 404.851562 325.550781 405.109375 329.28125 C 406.074219 344.664062 406.945312 360.078125 407.78125 375.457031 C 407.878906 377.386719 408.746094 378 410.519531 377.933594 C 412.257812 377.871094 413.996094 377.933594 415.765625 377.933594 C 413.675781 371.855469 415.027344 365.804688 415.027344 359.820312 C 415.027344 358.015625 416.796875 356.859375 418.824219 356.921875 C 421.046875 356.988281 422.65625 358.242188 422.59375 360.398438 C 422.464844 365.578125 423.816406 370.886719 421.722656 375.941406 C 420.917969 377.871094 421.980469 377.902344 423.238281 377.933594 C 427.453125 378.128906 431.671875 377.742188 435.859375 378.707031 C 438.917969 379.414062 439.078125 376.617188 439.175781 374.75 C 439.65625 365.226562 442.007812 356.023438 444.808594 347.042969 C 447.03125 339.933594 448.542969 332.339844 453.503906 326.324219 Z M 453.503906 326.324219 " fill-opacity="1" fill-rule="nonzero"/>
  <path fill="#fbc331" d="M 370.109375 377.933594 C 372.398438 379.671875 374.683594 379.03125 376.96875 377.96875 C 377.257812 379.960938 375.230469 379.480469 373.75 380.894531 C 379.414062 379.898438 384.246094 378.417969 389.300781 378.773438 C 391.167969 378.902344 391.101562 377.226562 391.070312 375.90625 C 390.910156 366.640625 391.167969 357.375 389.65625 348.105469 C 388.625 341.703125 389.203125 335.011719 389.363281 328.476562 C 389.429688 325.355469 388.367188 324.425781 385.339844 324.550781 C 381.734375 324.714844 378.0625 324.9375 374.523438 323.78125 C 371.140625 322.6875 368.695312 320.625 369.207031 316.894531 C 369.628906 313.902344 366.601562 310.167969 370.820312 307.851562 C 371.109375 308.011719 371.238281 308.207031 371.171875 308.429688 C 371.109375 308.65625 371.011719 308.785156 370.914062 308.785156 C 369.5 312.261719 370.433594 315.734375 371.078125 319.113281 C 371.589844 321.785156 373.941406 322.6875 376.421875 322.78125 C 380.21875 322.945312 384.019531 323.039062 387.820312 322.945312 C 389.976562 322.878906 390.910156 323.425781 390.976562 325.839844 C 391.457031 343.792969 392.070312 361.71875 392.648438 379.671875 L 392.679688 379.640625 C 380.800781 381.121094 368.789062 382.085938 357.457031 386.429688 C 355.945312 387.007812 354.914062 387.042969 354.785156 385.078125 C 358.230469 385.753906 360.128906 384.851562 358.488281 381.023438 C 357.359375 378.417969 358.035156 375.554688 357.070312 372.949219 C 356.621094 371.660156 357.457031 371.082031 358.746094 371.179688 C 360.195312 374.558594 358.96875 378.773438 362.125 381.570312 C 364.796875 384.433594 367.375 381.605469 369.851562 381.21875 C 371.6875 380.929688 369.660156 379.0625 370.109375 377.933594 Z M 370.109375 377.933594 " fill-opacity="1" fill-rule="nonzero"/>
  <path fill="#1e2123" d="M 460.714844 204.144531 C 460.8125 205.71875 460.683594 207.234375 458.878906 207.683594 C 456.914062 208.199219 456.335938 206.6875 456.078125 205.207031 C 454.339844 196.003906 450.027344 188.3125 442.84375 182.261719 C 441.6875 181.296875 440.65625 180.203125 441.847656 178.5625 C 443.101562 176.855469 444.550781 177.113281 446 178.273438 C 454.242188 185 459.039062 193.6875 460.714844 204.144531 Z M 460.714844 204.144531 " fill-opacity="1" fill-rule="nonzero"/>
  <path fill="#1f201f" d="M 372.269531 211.320312 C 370.949219 212.703125 369.59375 212.960938 368.210938 211.382812 C 366.054688 205.753906 368.371094 200.476562 369.53125 195.167969 C 370.464844 190.886719 372.300781 186.929688 375.457031 183.742188 C 376.613281 182.550781 377.804688 181.394531 379.542969 182.9375 C 380.898438 184.128906 381.667969 185.640625 380.511719 187.152344 C 375.519531 193.6875 374.230469 201.375 373.332031 209.226562 C 373.265625 209.9375 373.394531 210.996094 372.269531 211.320312 Z M 372.269531 211.320312 " fill-opacity="1" fill-rule="nonzero"/>
  <path fill="#ebb743" d="M 329.703125 247.359375 C 329.1875 254.019531 330.441406 261 334.660156 267.40625 C 335.464844 268.628906 336.207031 270.269531 335.722656 271.972656 C 334.886719 274.804688 331.570312 275.578125 329.25 273.679688 C 326.804688 271.683594 326.191406 268.757812 325.066406 266.117188 C 321.394531 257.65625 320.269531 248.839844 321.941406 239.765625 C 322.359375 237.480469 323.421875 234.96875 326.386719 235.226562 C 329.445312 235.484375 329.796875 237.898438 329.703125 240.40625 C 329.636719 242.46875 329.703125 244.527344 329.703125 247.359375 Z M 329.703125 247.359375 " fill-opacity="1" fill-rule="nonzero"/>
  <path fill="#1f201e" d="M 443.648438 220.105469 C 443.84375 221.90625 443.296875 223.226562 441.621094 223.644531 C 439.914062 224.0625 439.238281 222.644531 438.949219 221.390625 C 437.46875 214.890625 434.890625 208.96875 430.546875 203.855469 C 429.613281 202.792969 429.742188 201.730469 430.738281 200.765625 C 432.1875 199.382812 433.507812 200.152344 434.539062 201.246094 C 438.628906 205.558594 441.140625 210.804688 442.8125 216.4375 C 443.199219 217.691406 443.394531 218.976562 443.648438 220.105469 Z M 443.648438 220.105469 " fill-opacity="1" fill-rule="nonzero"/>
  <path fill="#fbc331" d="M 376.96875 378 C 376.902344 365.867188 375.839844 353.867188 372.652344 342.089844 C 375.777344 347.238281 377.484375 352.773438 377.097656 358.886719 C 376.871094 362.8125 377.128906 366.449219 382.023438 367.734375 C 383.730469 368.1875 384.890625 376.199219 383.601562 377.386719 C 382.601562 378.320312 381.539062 378.257812 380.703125 376.96875 C 379.640625 375.296875 379.253906 373.398438 379.351562 370.921875 C 376.777344 373.207031 379.253906 376.328125 376.96875 378 Z M 376.96875 378 " fill-opacity="1" fill-rule="nonzero"/>
  <path fill="#e9b745" d="M 372.269531 211.320312 C 373.652344 202.890625 374.359375 194.234375 379.835938 187.058594 C 380.898438 185.640625 380.511719 184.324219 379.09375 183.324219 C 377.675781 182.359375 376.484375 183.003906 375.714844 184.160156 C 374.359375 186.222656 372.945312 188.3125 372.011719 190.566406 C 369.242188 197.195312 367.695312 204.113281 368.210938 211.382812 C 366.503906 210.675781 366.441406 209.164062 366.570312 207.714844 C 367.375 199.347656 368.402344 191.015625 374.136719 184.226562 C 375.648438 182.425781 377.289062 180.332031 379.929688 182.488281 C 382.152344 184.289062 381.796875 186.382812 380.316406 188.667969 C 376.710938 194.234375 374.652344 200.347656 374.457031 207.039062 C 374.394531 208.746094 374.359375 210.578125 372.269531 211.320312 Z M 372.269531 211.320312 " fill-opacity="1" fill-rule="nonzero"/>
  <path fill="#efbe50" d="M 370.949219 308.753906 C 370.914062 308.433594 370.882812 308.140625 370.851562 307.820312 C 375.550781 304.699219 381.15625 305.566406 386.273438 304.378906 C 387.496094 304.085938 389.300781 304.539062 389.234375 302.671875 C 388.976562 294.464844 390.363281 286.164062 388.429688 278.023438 C 390.136719 277.703125 390.363281 278.796875 390.363281 280.082031 C 390.394531 287.644531 390.394531 295.207031 390.523438 302.800781 C 390.554688 305.148438 389.203125 305.183594 387.496094 305.4375 C 381.925781 306.210938 376.164062 306.179688 370.949219 308.753906 Z M 370.949219 308.753906 " fill-opacity="1" fill-rule="nonzero"/>
  <path fill="#fbe5a5" d="M 362.15625 381.570312 C 356.878906 379.449219 358.679688 375.039062 358.777344 371.179688 C 362.222656 371.433594 361.738281 374.265625 362.0625 376.390625 C 362.351562 378.0625 362.15625 379.832031 362.15625 381.570312 Z M 362.15625 381.570312 " fill-opacity="1" fill-rule="nonzero"/>
  <path fill="#fcd77f" d="M 428.132812 371.113281 C 427.777344 368.859375 427.324219 366.609375 427.101562 364.355469 C 426.972656 363.003906 427.390625 361.558594 429.03125 361.492188 C 431.0625 361.394531 430.804688 363.132812 430.640625 364.324219 C 430.320312 366.671875 429.742188 368.957031 429.257812 371.273438 C 428.871094 371.210938 428.484375 371.179688 428.132812 371.113281 Z M 428.132812 371.113281 " fill-opacity="1" fill-rule="nonzero"/>
  <path fill="#fed066" d="M 436.4375 367.027344 C 436.632812 367.765625 436.855469 368.21875 436.824219 368.605469 C 436.632812 370.40625 437.46875 372.464844 435.664062 373.914062 C 435.085938 374.363281 434.378906 374.007812 434.28125 373.460938 C 433.894531 371.179688 433.378906 368.796875 436.4375 367.027344 Z M 436.4375 367.027344 " fill-opacity="1" fill-rule="nonzero"/>
  <path fill="#e9c153" d="M 346.574219 169.199219 C 346.21875 169.230469 345.832031 169.296875 345.480469 169.328125 C 344.160156 167.78125 345.222656 165.5 343.742188 163.984375 C 345.1875 162.410156 345.898438 159.804688 348.859375 160.351562 C 349.3125 163.632812 346.476562 166.046875 346.574219 169.199219 Z M 346.574219 169.199219 " fill-opacity="1" fill-rule="nonzero"/>
  <path fill="#16243c" d="M 517.542969 205.429688 C 517.835938 196.679688 517.09375 187.992188 515 179.464844 C 514.742188 178.464844 514.710938 177.4375 514.519531 176.4375 C 514.195312 174.828125 514.484375 173.445312 516.191406 172.929688 C 518.285156 172.289062 518.671875 174.058594 519.089844 175.378906 C 520.957031 181.523438 522.214844 187.828125 522.566406 194.199219 C 522.984375 201.890625 522.761719 209.644531 522.695312 217.335938 C 522.664062 219.332031 522.597656 222.003906 519.796875 221.777344 C 517.414062 221.585938 517.609375 219.074219 517.609375 217.207031 C 517.511719 213.28125 517.542969 209.355469 517.542969 205.429688 Z M 517.542969 205.429688 " fill-opacity="1" fill-rule="nonzero"/>
  <path fill="#14293f" d="M 469.570312 119.742188 C 468.765625 122.15625 467.058594 123.089844 464.996094 121.449219 C 461.359375 118.519531 457.398438 116.171875 453.308594 113.949219 C 452.28125 113.371094 451.28125 112.628906 451.894531 111.183594 C 452.375 110.054688 453.179688 109.253906 454.46875 109.089844 C 456.949219 108.800781 468.441406 116.042969 469.246094 118.390625 C 469.410156 118.777344 469.441406 119.226562 469.570312 119.742188 Z M 469.570312 119.742188 " fill-opacity="1" fill-rule="nonzero"/>
  <path fill="#182a3f" d="M 509.6875 261.097656 C 510.492188 257.816406 511.652344 253.953125 513.519531 250.320312 C 514.035156 249.289062 514.871094 248.839844 516.03125 249.097656 C 517.285156 249.351562 517.640625 250.320312 517.511719 251.378906 C 516.964844 255.726562 515.484375 259.8125 513.550781 263.703125 C 513.070312 264.734375 512.070312 265.183594 510.976562 264.703125 C 509.71875 264.1875 509.496094 263.027344 509.6875 261.097656 Z M 509.6875 261.097656 " fill-opacity="1" fill-rule="nonzero"/>
  <path fill="#10263b" d="M 440.011719 103.203125 C 442.621094 103.683594 445.132812 104.136719 445.066406 107.191406 C 445.035156 108.640625 443.972656 110.21875 442.203125 109.605469 C 440.078125 108.867188 436.855469 109.15625 436.664062 105.875 C 436.535156 103.621094 438.335938 103.074219 440.011719 103.203125 Z M 440.011719 103.203125 " fill-opacity="1" fill-rule="nonzero"/>
  <path fill="#0e2a3c" d="M 500.960938 279.695312 C 502.507812 279.890625 503.828125 280.566406 503.25 281.886719 C 502.21875 284.296875 501.832031 287.515625 498.613281 288.128906 C 497.453125 288.351562 496.164062 286.777344 496.550781 285.328125 C 497.195312 282.816406 498.128906 280.308594 500.960938 279.695312 Z M 500.960938 279.695312 " fill-opacity="1" fill-rule="nonzero"/>
  <path fill="#133146" d="M 488.597656 133.644531 C 488.40625 135.15625 487.566406 136.089844 486.023438 135.960938 C 484.378906 135.832031 483.285156 134.800781 483.351562 133.128906 C 483.414062 131.679688 484.445312 130.746094 485.957031 130.777344 C 487.730469 130.84375 488.46875 131.96875 488.597656 133.644531 Z M 488.597656 133.644531 " fill-opacity="1" fill-rule="nonzero"/>
  <path fill="#0e3347" d="M 508.59375 163.984375 C 507.371094 163.632812 506.660156 162.828125 506.824219 161.476562 C 506.984375 160.125 507.820312 159.386719 509.207031 159.640625 C 510.652344 159.898438 510.910156 161.089844 510.75 162.28125 C 510.652344 163.375 509.914062 164.050781 508.59375 163.984375 Z M 508.59375 163.984375 " fill-opacity="1" fill-rule="nonzero"/>
  <path fill="#0b2e42" d="M 270.84375 267.535156 C 270.554688 268.5 270.007812 269.269531 268.847656 269.335938 C 267.300781 269.398438 267.429688 268.242188 267.398438 267.246094 C 267.367188 266.085938 267.851562 265.183594 269.105469 265.347656 C 270.234375 265.441406 270.746094 266.34375 270.84375 267.535156 Z M 270.84375 267.535156 " fill-opacity="1" fill-rule="nonzero"/>
  <path fill="#092e44" d="M 481.484375 310.78125 C 481.289062 311.9375 480.515625 312.519531 479.390625 312.484375 C 478.390625 312.453125 477.78125 311.90625 477.941406 310.8125 C 478.132812 309.6875 478.777344 308.914062 479.96875 309.011719 C 480.933594 309.074219 481.546875 309.6875 481.484375 310.78125 Z M 481.484375 310.78125 " fill-opacity="1" fill-rule="nonzero"/>
  <path fill="#154059" d="M 408.007812 99.375 C 409.167969 99.597656 409.875 100.273438 409.875 101.433594 C 409.875 102.496094 409.101562 102.847656 408.105469 102.785156 C 407.007812 102.71875 406.65625 101.949219 406.558594 101.078125 C 406.429688 100.015625 407.042969 99.503906 408.007812 99.375 Z M 408.007812 99.375 " fill-opacity="1" fill-rule="nonzero"/>
  <path fill="#032c43" d="M 523.855469 236.675781 C 523.726562 237.511719 523.695312 238.476562 522.566406 238.507812 C 521.570312 238.507812 521.054688 237.800781 521.152344 236.835938 C 521.246094 235.933594 521.761719 235.257812 522.726562 235.226562 C 523.660156 235.195312 523.789062 235.933594 523.855469 236.675781 Z M 523.855469 236.675781 " fill-opacity="1" fill-rule="nonzero"/>
  <path fill="#fdbe0c" d="M 383.152344 229.402344 C 383.3125 228.148438 383.828125 227.117188 384.855469 226.3125 C 388.59375 222.003906 391.199219 216.984375 393.839844 211.996094 C 394.546875 210.675781 395.03125 208.648438 396.964844 208.746094 C 398.796875 208.84375 399.347656 210.707031 399.957031 212.15625 C 400.667969 213.765625 401.632812 215.214844 402.4375 216.726562 C 403.015625 217.789062 404.238281 219.074219 402.984375 220.234375 C 401.953125 221.164062 400.761719 220.167969 399.894531 219.460938 C 396.929688 217.046875 396.609375 218.945312 396.578125 221.421875 C 396.03125 225.765625 393.613281 229.339844 391.039062 232.523438 C 386.597656 238.058594 385.148438 244.269531 385.308594 251.089844 C 384.890625 254.5 386.210938 256.433594 389.589844 257.625 C 393.871094 259.136719 397.800781 261.515625 402.40625 258.621094 C 404.046875 257.589844 405.175781 256.433594 405.496094 254.664062 C 406.140625 250.960938 407.976562 247.519531 407.554688 243.5625 C 407.429688 242.242188 407.523438 240.3125 409.585938 240.34375 C 411.292969 240.375 412.160156 241.695312 412.0625 243.367188 C 411.742188 250.898438 410.453125 258.105469 405.464844 264.1875 C 403.917969 266.054688 402.113281 267.179688 399.796875 265.570312 C 396.222656 263.0625 392.550781 263.609375 389.105469 265.441406 C 386.371094 266.921875 384.566406 266.472656 382.667969 264.15625 C 380.574219 261.582031 379.542969 258.683594 379.191406 255.402344 C 378.191406 246.359375 379.511719 237.707031 383.152344 229.402344 Z M 383.152344 229.402344 " fill-opacity="1" fill-rule="nonzero"/>
  <path fill="#fbbe30" d="M 383.152344 229.402344 C 383.503906 231.078125 382.957031 232.71875 382.28125 234.070312 C 378.902344 240.632812 379.769531 247.648438 379.738281 254.597656 C 379.738281 257.75 380.640625 260.648438 382.699219 263.0625 C 384.664062 265.378906 386.144531 266.570312 389.398438 263.769531 C 391.910156 261.582031 396.449219 262.320312 399.347656 264.285156 C 401.890625 265.988281 403.5625 265.507812 404.949219 263.703125 C 409.617188 257.589844 411.453125 250.511719 411.226562 242.886719 C 411.195312 241.886719 410.582031 241.117188 409.648438 241.148438 C 408.328125 241.179688 408.617188 242.433594 408.746094 243.144531 C 409.648438 247.488281 407.492188 251.316406 406.6875 255.339844 C 405.6875 260.390625 398.960938 262.578125 392.488281 260.292969 C 390.492188 259.585938 388.722656 258.554688 386.597656 257.976562 C 383.28125 257.042969 384.148438 253.535156 384.214844 250.800781 C 385.984375 252.3125 387.144531 249.449219 388.816406 250.15625 C 389.171875 250.640625 389.363281 251.15625 389.492188 251.734375 C 390.492188 256.65625 392.070312 258.363281 395.773438 258.492188 C 400.183594 258.652344 402.855469 256.464844 403.949219 251.863281 C 404.144531 251.027344 404.207031 250.15625 404.464844 249.320312 C 409.003906 242.082031 405.980469 235.96875 401.34375 230.335938 C 399.347656 227.890625 397.542969 225.671875 397.898438 222.292969 C 398.15625 219.976562 396.449219 221.390625 395.609375 221.230469 C 395.738281 219.75 394.710938 217.722656 396.707031 216.984375 C 399.507812 215.921875 400.28125 219.523438 403.242188 220.105469 C 401.566406 216.691406 400.183594 213.636719 398.574219 210.675781 C 397.703125 209.097656 396.609375 208.679688 395.449219 210.742188 C 393.390625 214.539062 391.101562 218.238281 388.976562 222.003906 C 387.980469 223.804688 386.886719 225.476562 384.921875 226.347656 C 388.914062 219.429688 392.90625 212.476562 397.222656 205.011719 C 401.921875 216.5 411.164062 225.511719 412.644531 238.1875 C 413.804688 248.355469 412.257812 257.976562 405.109375 265.988281 C 403.402344 267.921875 401.890625 268.851562 399.441406 266.441406 C 396.800781 263.867188 392.457031 264.476562 389.300781 267.757812 C 387.882812 269.238281 387.273438 269.046875 385.855469 268.046875 C 383.40625 266.3125 381.21875 264.347656 380.316406 261.453125 C 376.871094 250.382812 377.257812 239.636719 383.152344 229.402344 Z M 383.152344 229.402344 " fill-opacity="1" fill-rule="nonzero"/>
  <path fill="#febf01" d="M 389.011719 317.988281 C 385.660156 317.988281 382.3125 318.054688 378.996094 317.957031 C 376.679688 317.890625 375.679688 316.378906 375.648438 314.222656 C 375.648438 312.035156 377.417969 311.746094 378.996094 311.554688 C 388.109375 310.457031 397.253906 310.105469 406.429688 310.425781 C 408.425781 310.492188 410.550781 310.8125 410.808594 313.097656 C 411.066406 315.445312 408.8125 315.480469 407.203125 315.929688 C 401.214844 317.472656 395.097656 317.570312 389.011719 317.988281 Z M 389.011719 317.988281 " fill-opacity="1" fill-rule="nonzero"/>
  <path fill="#e17e50" d="M 400.796875 363.292969 C 401.019531 367.21875 401.375 371.144531 401.40625 375.070312 C 401.4375 376.582031 402.535156 379.15625 399.859375 379.285156 C 397.574219 379.414062 398.1875 376.96875 398.027344 375.523438 C 396.320312 359.113281 396.160156 342.636719 395.546875 326.160156 C 395.515625 324.9375 394.710938 322.816406 397.027344 322.78125 C 399.152344 322.75 398.765625 324.808594 398.863281 326.128906 C 399.667969 338.484375 400.375 350.875 401.117188 363.230469 C 401.019531 363.261719 400.921875 363.292969 400.796875 363.292969 Z M 400.796875 363.292969 " fill-opacity="1" fill-rule="nonzero"/>
  <path fill="#132036" d="M 385.695312 386.011719 C 382.378906 385.625 378.644531 383.921875 375.519531 387.492188 C 375.070312 388.007812 373.265625 387.589844 372.171875 387.332031 C 370.144531 386.785156 368.339844 386.140625 366.988281 388.714844 C 366.34375 389.96875 364.636719 389.582031 363.382812 389.003906 C 362.703125 388.683594 362.253906 388.007812 362.578125 387.203125 C 363.058594 386.109375 364.152344 386.171875 365.121094 385.882812 C 370.785156 383.984375 376.679688 383.210938 382.472656 381.925781 C 383.601562 381.667969 384.824219 381.410156 385.917969 381.605469 C 387.691406 381.894531 390.332031 382.214844 390.265625 384.273438 C 390.203125 386.71875 387.5625 385.625 385.695312 386.011719 Z M 385.695312 386.011719 " fill-opacity="1" fill-rule="nonzero"/>
  <path fill="#132036" d="M 427.101562 379.929688 C 425.714844 382.761719 424.6875 384.050781 423.203125 384.050781 C 417.121094 384.144531 411 384.113281 404.917969 383.855469 C 403.757812 383.792969 401.601562 383.757812 401.4375 381.988281 C 401.375 381.183594 402.695312 380.1875 403.433594 379.351562 C 404.789062 377.742188 405.6875 379.09375 406.621094 379.929688 C 407.332031 380.542969 408.199219 380.894531 409.039062 380.605469 C 414.832031 378.738281 420.5 382.601562 427.101562 379.929688 Z M 427.101562 379.929688 " fill-opacity="1" fill-rule="nonzero"/>
  <path fill="#e68c65" d="M 397.960938 291.828125 C 397.960938 295.625 397.960938 299.390625 397.960938 303.1875 C 397.960938 304.085938 397.769531 305.019531 396.640625 305.054688 C 395.417969 305.085938 395.417969 304.054688 395.386719 303.1875 C 395.226562 295.464844 395.097656 287.773438 394.96875 280.050781 C 394.96875 279.183594 395.128906 278.183594 396.382812 278.34375 C 397.351562 278.472656 397.285156 279.375 397.316406 280.050781 C 397.511719 283.976562 397.703125 287.902344 397.863281 291.828125 C 397.898438 291.828125 397.929688 291.828125 397.960938 291.828125 Z M 397.960938 291.828125 " fill-opacity="1" fill-rule="nonzero"/>
  <path fill="#132036" d="M 392.714844 379.640625 C 394.324219 379.191406 396.289062 378.0625 397.027344 380.605469 C 397.542969 382.34375 395.835938 382.957031 394.644531 383.050781 C 391.78125 383.308594 392.132812 381.441406 392.746094 379.609375 C 392.746094 379.609375 392.714844 379.640625 392.714844 379.640625 Z M 392.714844 379.640625 " fill-opacity="1" fill-rule="nonzero"/>
  <path fill="#968e81" d="M 395.289062 270.269531 C 396.0625 270.460938 396.898438 270.914062 396.929688 271.878906 C 396.929688 272.941406 395.996094 272.714844 395.320312 272.714844 C 394.515625 272.683594 393.777344 272.359375 393.777344 271.523438 C 393.742188 270.75 394.292969 270.203125 395.289062 270.269531 Z M 395.289062 270.269531 " fill-opacity="1" fill-rule="nonzero"/>
  <path fill="#1b2225" d="M 346.574219 169.199219 C 344.578125 165.5625 347.605469 163.183594 348.828125 160.382812 C 351.691406 157.324219 354.496094 154.238281 358.101562 151.984375 C 360.160156 150.695312 361.835938 150.632812 363.285156 152.789062 C 364.21875 154.910156 362.671875 156.007812 361.386719 157.101562 C 357.714844 160.1875 354.238281 163.472656 351.4375 167.398438 C 350.179688 169.101562 348.699219 169.9375 346.574219 169.199219 Z M 346.574219 169.199219 " fill-opacity="1" fill-rule="nonzero"/>
  <path fill="#fdf0bb" d="M 344.546875 202.597656 C 339.617188 202.34375 339.105469 201.632812 340.425781 197.128906 C 344.546875 183.035156 351.726562 170.777344 363.445312 161.832031 C 375.808594 152.371094 390.167969 150.054688 405.367188 152.402344 C 409.230469 153.011719 413.125 153.914062 416.636719 155.8125 C 418.085938 156.617188 420.402344 157.132812 419.597656 159.417969 C 418.761719 161.796875 416.539062 161.765625 414.414062 161.1875 C 410.035156 160.027344 405.65625 159.09375 401.117188 158.613281 C 379.835938 156.359375 364.476562 165.59375 353.625 183.226562 C 349.859375 189.308594 346.894531 195.84375 344.546875 202.597656 Z M 344.546875 202.597656 " fill-opacity="1" fill-rule="nonzero"/>
  <path fill="#febb02" d="M 435.859375 157.066406 C 433.25 157.261719 431.09375 156.359375 429.386719 154.238281 C 431.800781 154.492188 433.992188 155.425781 435.859375 157.066406 Z M 435.859375 157.066406 " fill-opacity="1" fill-rule="nonzero"/>
  <path fill="#201916" d="M 416.441406 367.125 C 416.441406 364.9375 416.441406 362.746094 416.441406 360.558594 C 416.441406 359.207031 417.121094 358.273438 418.472656 358.144531 C 420.082031 357.984375 420.917969 359.046875 420.949219 360.527344 C 421.015625 364.902344 420.984375 369.28125 420.984375 373.65625 C 420.984375 375.296875 419.953125 376.003906 418.503906 376.070312 C 416.605469 376.164062 416.023438 374.941406 416.058594 373.238281 C 416.089844 371.210938 416.058594 369.152344 416.058594 367.125 C 416.152344 367.125 416.3125 367.125 416.441406 367.125 Z M 416.441406 367.125 " fill-opacity="1" fill-rule="nonzero"/>
  <path fill="#191d24" d="M 328.15625 245.554688 C 328.1875 253.441406 329.058594 261.355469 333.535156 268.433594 C 334.5625 270.042969 335.882812 271.84375 333.371094 273.230469 C 330.957031 274.546875 329.925781 272.488281 328.960938 270.914062 C 326.03125 266.148438 324.164062 260.9375 323.585938 255.339844 C 323.070312 250.542969 323.230469 245.71875 323.519531 240.890625 C 323.648438 238.992188 323.519531 236.609375 326.191406 236.707031 C 329.285156 236.835938 328.542969 239.441406 328.511719 241.40625 C 328.445312 242.691406 328.253906 244.011719 328.15625 245.554688 Z M 328.15625 245.554688 " fill-opacity="1" fill-rule="nonzero"/>
  <path fill="#fceebd" d="M 395.578125 221.199219 C 396.738281 220.523438 396.125 218.042969 397.734375 218.335938 C 399.605469 218.6875 398.960938 220.714844 398.894531 222.066406 C 398.796875 224.640625 399.21875 226.570312 401.34375 228.566406 C 404.304688 231.335938 406.460938 234.9375 407.394531 239.023438 C 408.199219 242.691406 408.070312 246.265625 405.367188 249.289062 C 403.402344 248.164062 402.792969 246.070312 401.792969 244.269531 C 401.308594 242.691406 401.019531 241.019531 400.667969 240.28125 C 400.667969 240.28125 400.441406 240.890625 399.957031 241.503906 C 394.96875 241.503906 391.78125 244.109375 389.816406 248.484375 C 389.527344 249.128906 389.074219 249.707031 388.367188 249.964844 C 387.109375 250.769531 388.238281 253.054688 386.433594 253.34375 C 384.632812 253.632812 385.179688 251.445312 384.179688 250.769531 C 383.40625 241.953125 387.433594 234.90625 392.519531 228.210938 C 394.097656 226.152344 395.320312 223.867188 395.578125 221.199219 Z M 395.578125 221.199219 " fill-opacity="1" fill-rule="nonzero"/>
  <path fill="#3b2610" d="M 402.46875 243.851562 C 403.660156 245.523438 404.949219 247.164062 405.335938 249.289062 C 404.753906 255.691406 402.953125 258.363281 398.414062 259.394531 C 391.941406 260.875 388.59375 257.75 388.335938 249.964844 C 388.785156 247.164062 390.203125 244.878906 392.261719 243.015625 C 394.484375 241.019531 396.898438 239.570312 399.894531 241.597656 C 401.472656 241.535156 401.761719 242.949219 402.46875 243.851562 Z M 402.46875 243.851562 " fill-opacity="1" fill-rule="nonzero"/>
  <path fill="#fdbe0c" d="M 402.46875 243.851562 C 401.601562 243.109375 400.730469 242.371094 399.894531 241.597656 C 399.988281 240.792969 399.410156 239.894531 400.375 239.023438 C 401.953125 240.28125 402.566406 241.886719 402.46875 243.851562 Z M 402.46875 243.851562 " fill-opacity="1" fill-rule="nonzero"/>
  <path fill="#de9536" d="M 396.320312 255.757812 C 393.839844 255.402344 391.554688 254.339844 391.394531 251.125 C 391.265625 248.644531 394.96875 244.300781 397.125 244.140625 C 399.378906 243.980469 402.46875 247.292969 402.597656 250.027344 C 402.695312 252.925781 399.925781 255.628906 396.320312 255.757812 Z M 396.320312 255.757812 " fill-opacity="1" fill-rule="nonzero"/>
  <path fill="#3a2f17" d="M 398.992188 250.15625 C 398.925781 251.992188 398.121094 253.375 396.160156 253.246094 C 394.582031 253.152344 393.519531 252.054688 393.679688 250.253906 C 393.839844 248.550781 394.613281 246.875 396.351562 246.746094 C 398.316406 246.683594 398.832031 248.453125 398.992188 250.15625 Z M 398.992188 250.15625 " fill-opacity="1" fill-rule="nonzero"/>
</svg>
